<svg width="165" height="58" viewBox="0 0 165 58" fill="none" xmlns="http://www.w3.org/2000/svg">
<path d="M23.3882 0.902924C20.3165 0.902924 17.2747 1.63271 14.4367 3.05036C11.5988 4.46817 9.02025 6.54612 6.84808 9.16573C4.67604 11.7855 2.95312 14.8953 1.77754 18.3181C0.602105 21.7408 -0.00299072 25.4094 -0.00299072 29.1141C-0.00299072 32.8188 0.602105 36.4874 1.77754 39.9101C2.95312 43.3328 4.67604 46.4427 6.84808 49.0624C9.02025 51.6821 11.5988 53.76 14.4367 55.1778C17.2747 56.5955 20.3165 57.3253 23.3882 57.3253V43.2197C21.8522 43.2197 20.3314 42.8549 18.9124 42.1459C17.4935 41.437 16.2042 40.3981 15.1181 39.0883C14.0321 37.7785 13.1706 36.2235 12.5829 34.5121C11.9951 32.8007 11.6926 30.9665 11.6926 29.1141C11.6926 27.2617 11.9951 25.4275 12.5829 23.7161C13.1706 22.0047 14.0321 20.4497 15.1181 19.1399C16.2042 17.8301 17.4935 16.7911 18.9124 16.0823C20.3314 15.3733 21.8522 15.0085 23.3882 15.0085V0.902924Z" fill="#0F52FF"/>
<path d="M22.8886 14.5211C21.5444 14.587 20.2198 14.9176 18.9687 15.4996L18.6894 15.6353C17.2968 16.331 16.0289 17.3271 14.9472 18.5689L14.7333 18.8209C13.7473 20.0101 12.9423 21.3903 12.3505 22.899L12.1103 23.5533C11.5041 25.3181 11.1923 27.2076 11.1923 29.1139C11.1923 30.782 11.4307 32.4373 11.8964 34.0074L12.1103 34.6744C12.6785 36.329 13.4957 37.8468 14.5244 39.15L14.7333 39.4078C15.7899 40.682 17.0365 41.7143 18.412 42.4498L18.6894 42.5934C20.0219 43.2591 21.4439 43.6348 22.8886 43.7057V56.817C20.2535 56.7473 17.646 56.1283 15.1816 54.982L14.6601 54.7301C12.062 53.4321 9.68009 51.5653 7.63666 49.2193L7.23334 48.7437C5.2354 46.334 3.62103 43.497 2.47357 40.3756L2.25092 39.7477C1.09385 36.3784 0.497009 32.7646 0.497009 29.1139C0.497032 25.6913 1.02106 22.3014 2.03998 19.1148L2.25092 18.4801C3.33583 15.3215 4.89248 12.4382 6.83881 9.97226L7.23334 9.48495C9.23119 7.0756 11.5749 5.13876 14.1435 3.76523L14.6601 3.49765C17.2767 2.19058 20.0669 1.48537 22.8886 1.41074V14.5211Z" stroke="#FA181C" stroke-opacity="0.97"/>
<path d="M23.3882 38.5178C27.6944 38.5178 31.1852 34.3076 31.1852 29.1141C31.1852 23.9205 27.6944 19.7104 23.3882 19.7104C19.082 19.7104 15.5911 23.9205 15.5911 29.1141C15.5911 34.3076 19.082 38.5178 23.3882 38.5178Z" fill="#0F52FF"/>
<path d="M23.388 20.2104C27.3344 20.2104 30.6847 24.1047 30.6849 29.1137C30.6849 34.1228 27.3345 38.018 23.388 38.018C19.4416 38.0179 16.0911 34.1228 16.0911 29.1137C16.0913 24.1048 19.4417 20.2105 23.388 20.2104Z" stroke="#FA181C" stroke-opacity="0.97"/>
<path d="M-0.00298309 29.1141C-0.00298309 32.8188 0.602113 36.4873 1.77755 39.9101C2.95313 43.3328 4.67605 46.4427 6.84809 49.0624C9.02026 51.682 11.5988 53.76 14.4367 55.1778C17.2747 56.5955 20.3165 57.3252 23.3882 57.3252C26.4599 57.3252 29.5017 56.5955 32.3396 55.1778C35.1776 53.76 37.7561 51.682 39.9283 49.0624C42.1003 46.4427 43.8232 43.3328 44.9988 39.9101C46.1743 36.4873 46.7794 32.8188 46.7794 29.1141H35.0838C35.0838 30.9665 34.7813 32.8007 34.1934 34.5121C33.6057 36.2234 32.7443 37.7784 31.6582 39.0883C30.5722 40.3981 29.2829 41.437 27.8639 42.1459C26.4449 42.8548 24.9241 43.2197 23.3882 43.2197C21.8523 43.2197 20.3314 42.8548 18.9125 42.1459C17.4935 41.437 16.2042 40.3981 15.1181 39.0883C14.0321 37.7784 13.1707 36.2234 12.5829 34.5121C11.9951 32.8007 11.6926 30.9665 11.6926 29.1141H-0.00298309Z" fill="#5BD0F4"/>
<path d="M11.2031 29.6141C11.2459 31.1121 11.4774 32.5938 11.8964 34.0067L12.1103 34.6746C12.6784 36.3289 13.496 37.8462 14.5244 39.1492L14.7333 39.407C15.79 40.6814 17.0364 41.7145 18.4121 42.45L18.6894 42.5936C20.1753 43.3359 21.7727 43.7195 23.3886 43.7195C24.9035 43.7195 26.4019 43.3823 27.8076 42.7283L28.0878 42.5936C29.4804 41.8979 30.7474 40.9008 31.829 39.659L32.0429 39.407C33.0289 38.2178 33.8339 36.8377 34.4257 35.3289L34.666 34.6746C35.2191 33.0642 35.5236 31.3501 35.5732 29.6141H46.2744C46.2258 32.8665 45.7055 36.0818 44.7363 39.1131L44.5263 39.7479C43.4414 42.9066 41.8838 45.7896 39.9374 48.2557L39.5429 48.743C37.5449 51.1525 35.2016 53.0901 32.6328 54.4637L32.1162 54.7303C29.3454 56.1144 26.38 56.8249 23.3886 56.825C20.5839 56.825 17.8016 56.2009 15.1816 54.9822L14.6601 54.7303C12.0618 53.4322 9.6802 51.5648 7.63667 49.2186L7.23335 48.743C5.23546 46.3333 3.62103 43.4971 2.47358 40.3758L2.25092 39.7479C1.14671 36.5325 0.55382 33.0944 0.5019 29.6141H11.2031Z" stroke="#FA181C" stroke-opacity="0.97"/>
<path d="M31.1853 29.1142C31.1853 26.6202 30.3638 24.2283 28.9016 22.4647C27.4394 20.7011 25.4562 19.7104 23.3883 19.7104C21.3204 19.7104 19.3372 20.7011 17.8749 22.4647C16.4126 24.2283 15.5911 26.6202 15.5911 29.1142H23.3883H31.1853Z" fill="#5BD0F4"/>
<path d="M23.388 20.2104C25.171 20.2104 26.9071 21.0104 28.2532 22.4809L28.5169 22.7836C29.8013 24.3328 30.5715 26.4101 30.6732 28.6147H16.1028C16.1976 26.5581 16.8748 24.6125 18.0081 23.1029L18.2601 22.7836C19.6389 21.1208 21.4864 20.2104 23.388 20.2104Z" stroke="#FA181C" stroke-opacity="0.97"/>
<path d="M58.9956 18.5147H56.0904V37.9804H58.9956V18.5147Z" fill="#0F52FF"/>
<path d="M58.4957 19.0147V37.4805H56.5904V19.0147H58.4957Z" stroke="#FA181C" stroke-opacity="0.97"/>
<path d="M60.8927 31.0845C60.8927 35.5894 63.4751 38.3702 66.8876 38.3702C70.3 38.3702 72.8824 35.5894 72.8824 31.0845C72.8824 26.5796 70.3 23.7988 66.8876 23.7988C63.4751 23.7988 60.8927 26.5796 60.8927 31.0845ZM63.7979 31.0845C63.7979 28.4149 65.0891 26.8577 66.8876 26.8577C68.686 26.8577 69.9772 28.4149 69.9772 31.0845C69.9772 33.7541 68.686 35.3113 66.8876 35.3113C65.0891 35.3113 63.7979 33.7541 63.7979 31.0845Z" fill="#0F52FF"/>
<path d="M66.8878 24.2988C68.4493 24.2988 69.8085 24.9309 70.7843 26.0761C71.7646 27.2265 72.382 28.9262 72.382 31.0849C72.3819 33.2434 71.7645 34.9423 70.7843 36.0927C69.8085 37.238 68.4494 37.87 66.8878 37.8701C65.3263 37.8701 63.9673 37.2379 62.9914 36.0927C62.0112 34.9423 61.3928 33.2434 61.3927 31.0849C61.3927 28.9262 62.0111 27.2265 62.9914 26.0761C63.9673 24.931 65.3264 24.2988 66.8878 24.2988ZM66.8878 26.3574C65.8292 26.3574 64.91 26.8225 64.2697 27.6679C63.6383 28.5016 63.298 29.6753 63.298 31.0849C63.2981 32.4943 63.6383 33.6673 64.2697 34.5009C64.91 35.3464 65.8292 35.8115 66.8878 35.8115C67.9463 35.8114 68.8647 35.3462 69.505 34.5009C70.1364 33.6673 70.4767 32.4944 70.4767 31.0849C70.4767 29.6753 70.1364 28.5016 69.505 27.6679C68.8647 26.8227 67.9463 26.3574 66.8878 26.3574Z" stroke="#FA181C" stroke-opacity="0.97"/>
<path d="M83.264 24.1881V26.0511H83.0334C82.3417 24.8555 81.235 23.7988 79.2521 23.7988C76.5314 23.7988 74.0873 26.5796 74.0873 30.862C74.0873 35.1445 76.5314 37.9253 79.2521 37.9253C81.235 37.9253 82.3417 36.8407 82.9873 35.7563H83.2179V37.0911C83.2179 39.7606 81.9267 40.9842 80.036 40.9842C78.1454 40.9842 77.177 39.7606 76.7849 38.1755L74.1796 39.5382C74.779 41.6237 76.5314 43.9319 80.0821 43.9319C83.7252 43.9319 86.1231 41.6237 86.1231 37.1744V24.1881H83.264ZM80.1283 34.922C78.3298 34.922 76.9925 33.3648 76.9925 30.862C76.9925 28.3593 78.3298 26.802 80.1283 26.802C81.9267 26.802 83.264 28.3593 83.264 30.862C83.264 33.3648 81.9267 34.922 80.1283 34.922Z" fill="#0F52FF"/>
<path d="M79.2524 24.2988C81.0048 24.2989 81.9693 25.2097 82.601 26.3017L82.7455 26.5507H83.7641V24.6884H85.6235V37.1747C85.6234 39.3123 85.0479 40.8656 84.103 41.8808C83.1619 42.8918 81.7959 43.4315 80.0824 43.4316C77.0293 43.4316 75.4348 41.6016 74.7846 39.7851L76.4809 38.8974C76.7045 39.5184 77.0342 40.0878 77.5033 40.5361C78.131 41.1357 78.9724 41.4842 80.0356 41.4843C81.0929 41.4843 82.0389 41.1382 82.7123 40.3681C83.3774 39.6073 83.7182 38.4996 83.7182 37.0908V35.2558H82.7035L82.558 35.5009C81.9714 36.4863 81.0053 37.4256 79.2524 37.4257C76.92 37.4257 74.5874 34.9958 74.5873 30.8622C74.5873 26.7285 76.9199 24.2988 79.2524 24.2988ZM80.1283 26.3017C79.0725 26.3017 78.1458 26.7641 77.4946 27.582C76.8495 28.3921 76.4926 29.5255 76.4926 30.8622C76.4926 32.1987 76.8497 33.3315 77.4946 34.1415C78.1458 34.9594 79.0725 35.4218 80.1283 35.4218C81.1842 35.4218 82.1109 34.9594 82.7621 34.1415C83.407 33.3315 83.764 32.1987 83.7641 30.8622C83.7641 29.5255 83.4072 28.3921 82.7621 27.582C82.1109 26.7641 81.1842 26.3017 80.1283 26.3017Z" stroke="#FA181C" stroke-opacity="0.97"/>
<path d="M88.0027 31.0845C88.0027 35.5894 90.5851 38.3702 93.9976 38.3702C97.41 38.3702 99.9922 35.5894 99.9922 31.0845C99.9922 26.5796 97.41 23.7988 93.9976 23.7988C90.5851 23.7988 88.0027 26.5796 88.0027 31.0845ZM90.9079 31.0845C90.9079 28.4149 92.1991 26.8577 93.9976 26.8577C95.796 26.8577 97.0872 28.4149 97.0872 31.0845C97.0872 33.7541 95.796 35.3113 93.9976 35.3113C92.1991 35.3113 90.9079 33.7541 90.9079 31.0845Z" fill="#0F52FF"/>
<path d="M93.9978 24.2988C95.5593 24.2988 96.9185 24.9309 97.8943 26.0761C98.8745 27.2265 99.492 28.9262 99.492 31.0849C99.4919 33.2434 98.8745 34.9423 97.8943 36.0927C96.9185 37.238 95.5594 37.87 93.9978 37.8701C92.4363 37.8701 91.0773 37.2379 90.1014 36.0927C89.1212 34.9423 88.5028 33.2434 88.5027 31.0849C88.5027 28.9262 89.1211 27.2265 90.1014 26.0761C91.0773 24.931 92.4364 24.2988 93.9978 24.2988ZM93.9978 26.3574C92.9392 26.3574 92.02 26.8225 91.3797 27.6679C90.7483 28.5016 90.408 29.6753 90.408 31.0849C90.4081 32.4943 90.7483 33.6673 91.3797 34.5009C92.02 35.3464 92.9392 35.8115 93.9978 35.8115C95.0563 35.8114 95.9747 35.3462 96.615 34.5009C97.2464 33.6673 97.5867 32.4944 97.5867 31.0849C97.5867 29.6753 97.2464 28.5016 96.615 27.6679C95.9747 26.8227 95.0563 26.3574 93.9978 26.3574Z" stroke="#FA181C" stroke-opacity="0.97"/>
<path d="M102.273 20.1832C102.273 21.6014 103.172 22.5747 104.326 22.5747C105.478 22.5747 106.378 21.6014 106.378 20.1832C106.378 18.765 105.478 17.7917 104.326 17.7917C103.172 17.7917 102.273 18.765 102.273 20.1832ZM105.777 24.1875H102.873V37.9804H105.777V24.1875Z" fill="#5BD0F4"/>
<path d="M105.278 24.6872V37.4801H103.373V24.6872H105.278ZM104.325 18.2917C105.142 18.2917 105.877 18.9776 105.877 20.1833C105.877 21.3889 105.142 22.0749 104.325 22.0749C103.508 22.0747 102.773 21.3885 102.773 20.1833C102.773 18.978 103.508 18.2918 104.325 18.2917Z" stroke="#FA181C" stroke-opacity="0.97"/>
<path d="M108.366 43.5426H111.272V36.2012H111.502C112.148 37.3135 113.254 38.3702 115.238 38.3702C117.958 38.3702 120.403 35.5894 120.403 31.0845C120.403 26.5796 117.958 23.7988 115.238 23.7988C113.254 23.7988 112.148 24.8555 111.457 26.0513H111.225V24.1881H108.366V43.5426ZM114.361 35.367C112.563 35.367 111.225 33.8097 111.225 31.0845C111.225 28.3593 112.563 26.802 114.361 26.802C116.16 26.802 117.497 28.3593 117.497 31.0845C117.497 33.8097 116.16 35.367 114.361 35.367Z" fill="#5BD0F4"/>
<path d="M115.238 24.2988C117.561 24.299 119.902 26.7176 119.902 31.0849C119.902 35.452 117.561 37.8698 115.238 37.8701C113.48 37.8701 112.517 36.9541 111.935 35.9501L111.79 35.7011H110.772V43.0429H108.866V24.6884H110.726V26.5517H111.745L111.89 26.3017C112.521 25.2097 113.485 24.2988 115.238 24.2988ZM114.361 26.3017C113.304 26.3017 112.374 26.766 111.722 27.6171C111.078 28.4576 110.726 29.6458 110.726 31.0849C110.726 32.5237 111.078 33.7113 111.722 34.5517C112.374 35.4028 113.304 35.8671 114.361 35.8671C115.419 35.867 116.349 35.4029 117.001 34.5517C117.645 33.7113 117.997 32.5236 117.997 31.0849C117.997 29.6459 117.645 28.4576 117.001 27.6171C116.349 26.766 115.419 26.3018 114.361 26.3017Z" stroke="#FA181C" stroke-opacity="0.97"/>
<path d="M122.098 28.0535C122.098 30.7787 123.988 31.7798 126.386 32.3359L126.986 32.4749C128.415 32.8086 129.06 33.2258 129.06 34.1157C129.06 35.0055 128.415 35.7007 127.078 35.7007C125.74 35.7007 124.657 35.0333 124.357 33.0311L121.682 33.8653C122.075 36.7574 124.08 38.3702 127.078 38.3702C129.983 38.3702 131.874 36.7296 131.874 33.8376C131.874 30.9454 129.937 30.1669 127.355 29.5551L126.755 29.416C125.556 29.1379 124.91 28.7486 124.91 27.831C124.91 26.9968 125.51 26.4684 126.617 26.4684C127.724 26.4684 128.507 27.0245 128.784 28.5262L131.413 27.5529C130.859 25.3283 129.177 23.7988 126.617 23.7988C123.896 23.7988 122.098 25.3283 122.098 28.0535Z" fill="#5BD0F4"/>
<path d="M126.617 24.2988C127.793 24.2988 128.739 24.6486 129.452 25.2294C130.064 25.7287 130.522 26.4164 130.801 27.246L129.134 27.8622C128.963 27.317 128.704 26.8792 128.343 26.5595C127.858 26.1301 127.255 25.9687 126.617 25.9687C125.991 25.9687 125.438 26.1174 125.032 26.4501C124.613 26.7937 124.41 27.2845 124.41 27.831C124.41 28.432 124.633 28.907 125.072 29.2548C125.374 29.4944 125.761 29.6596 126.195 29.787L126.642 29.9033L127.24 30.041V30.0419C128.532 30.3481 129.562 30.6767 130.274 31.2343C130.945 31.7601 131.374 32.5247 131.374 33.8378C131.373 35.1703 130.942 36.1606 130.226 36.8212C129.505 37.4868 128.439 37.87 127.079 37.8701C125.669 37.8701 124.539 37.4921 123.722 36.8173C122.995 36.216 122.48 35.3485 122.249 34.2119L123.977 33.6728C124.175 34.4653 124.517 35.0696 124.999 35.4921C125.591 36.0117 126.327 36.2011 127.079 36.2011C127.83 36.201 128.454 36.0044 128.898 35.6191C129.349 35.2281 129.56 34.6879 129.56 34.1161C129.56 33.5198 129.33 33.0432 128.861 32.6884C128.539 32.4451 128.117 32.2676 127.621 32.123L127.1 31.9882H127.099L126.499 31.8486C125.322 31.5758 124.346 31.2086 123.667 30.6279C123.015 30.0697 122.598 29.2815 122.598 28.0536C122.598 26.8062 123.006 25.8858 123.674 25.2734C124.349 24.6554 125.347 24.2988 126.617 24.2988Z" stroke="#FA181C" stroke-opacity="0.97"/>
<path d="M144.923 37.9804V24.1875H142.019V31.3064C142.019 33.8648 140.981 35.3664 139.205 35.3664C137.637 35.3664 136.762 34.3376 136.762 32.2519V24.1875H133.856V32.4187C133.856 35.8392 135.632 38.2028 138.307 38.2028C140.404 38.2028 141.373 37.0905 141.834 35.9226H142.064V37.9804H144.923Z" fill="#5BD0F4"/>
<path d="M136.262 24.6875V32.252C136.262 33.3534 136.491 34.2627 137.005 34.9043C137.535 35.565 138.304 35.8662 139.205 35.8662C140.256 35.8661 141.113 35.4116 141.689 34.5801C142.249 33.7711 142.519 32.6431 142.519 31.3067V24.6875H144.423V37.4805H142.564V35.4229H141.495L141.37 35.7393C141.162 36.2639 140.852 36.7478 140.383 37.1016C139.919 37.4516 139.262 37.7031 138.307 37.7032C137.133 37.7032 136.164 37.1905 135.476 36.2901C134.78 35.3789 134.356 34.0476 134.356 32.419V24.6875H136.262Z" stroke="#FA181C" stroke-opacity="0.97"/>
<path d="M147.5 24.1878V37.9806H150.406V29.7494C150.406 27.8584 151.144 26.8017 152.481 26.8017C153.634 26.8017 154.325 27.5804 154.325 29.082V37.9806H157.231V29.7494C157.231 27.8584 157.969 26.8017 159.306 26.8017C160.459 26.8017 161.15 27.5804 161.15 29.082V37.9806H164.056V28.9152C164.056 25.5782 162.349 23.9653 160.228 23.9653C158.361 23.9653 157.508 24.9664 156.955 26.1343H156.723C156.193 24.8274 155.248 23.9653 153.588 23.9653C151.927 23.9653 151.028 24.8552 150.591 25.9119H150.36V24.1878H147.5Z" fill="#5BD0F4"/>
<path d="M160.228 24.4653C161.154 24.4653 161.966 24.8132 162.555 25.5112C163.15 26.2168 163.556 27.3283 163.556 28.9155V37.4809H161.65V29.0825C161.65 28.2634 161.462 27.5632 161.045 27.06C160.617 26.5428 160.003 26.3023 159.306 26.3022C158.487 26.3022 157.81 26.6357 157.358 27.2788C156.924 27.8965 156.731 28.7506 156.731 29.7495V37.4809H154.826V29.0825C154.826 28.2633 154.637 27.5632 154.22 27.06C153.791 26.5427 153.178 26.3023 152.481 26.3022C151.662 26.3022 150.984 26.6356 150.533 27.2788C150.099 27.8965 149.907 28.7506 149.907 29.7495V37.4809H148V24.688H149.86V26.4116H150.925L151.053 26.103C151.245 25.64 151.528 25.2356 151.924 24.9467C152.317 24.6609 152.852 24.4653 153.587 24.4653C154.326 24.4653 154.869 24.6555 155.281 24.9614C155.697 25.271 156.019 25.728 156.26 26.3227L156.386 26.6342H157.271L157.407 26.3481C157.666 25.8001 157.975 25.3367 158.403 25.0083C158.821 24.6869 159.391 24.4653 160.228 24.4653Z" stroke="#FA181C" stroke-opacity="0.97"/>
</svg>
