<svg width="174" height="58" viewBox="0 0 174 58" fill="none" xmlns="http://www.w3.org/2000/svg">
<path d="M14.8915 54.7455L10.1664 44.8747L17.1008 30.4285L21.5074 39.6344L47.5204 39.6175L40.1391 54.8817L14.8915 54.7455Z" fill="#FFAD64"/>
<path d="M21.056 39.8504L21.1927 40.1346H21.5081L46.723 40.118L39.8255 54.3797L15.2064 54.2469L10.7201 44.8748L17.0999 31.5847L21.056 39.8504Z" stroke="#FA181C" stroke-opacity="0.97"/>
<path d="M52.1653 29.8166L47.4401 39.6873L33.5997 39.6676L38.0067 30.4619L24.9882 3.30038L39.6394 3.37791L52.1653 29.8166Z" fill="#ADD4D3"/>
<path d="M39.3212 3.87558L51.6112 29.815L47.1249 39.1861L34.3925 39.1685L38.4579 30.6783L38.5614 30.4615L38.4579 30.2457L25.7841 3.80429L39.3212 3.87558Z" stroke="#FA181C" stroke-opacity="0.97"/>
<path d="M15.6195 3.2471H25.0699L31.976 17.7132L23.1621 17.7128L10.1678 44.8913L2.8978 29.5496L15.6195 3.2471Z" fill="#FB8351"/>
<path d="M24.7542 3.7471L31.183 17.2129H22.847L22.7113 17.4971L10.1693 43.7276L3.45248 29.5508L15.933 3.7471H24.7542Z" stroke="#FA181C" stroke-opacity="0.97"/>
<path fill-rule="evenodd" clip-rule="evenodd" d="M26.2221 0.961856L26.1939 0.902893H14.5032L0.653351 29.5378L10.1605 49.6004L10.1722 49.5761L13.7662 57.084L41.2528 57.2324L50.9054 37.2709H50.8412L54.407 29.8221L40.7703 1.03884L26.2221 0.961856ZM35.2657 20.058H35.3386L28.4664 5.66283L38.5084 5.71592L49.9235 29.81L46.3505 37.2739L36.987 37.2799L40.2518 30.4606L35.2657 20.058ZM23.8414 5.59185L28.5274 15.3687L22.0394 15.3685L10.9318 38.6006L10.1741 40.1791L5.14279 29.5617L16.7362 5.59185H23.8414ZM19.3361 30.4092L24.2853 20.0576L30.7749 20.0578L35.7616 30.462L32.4963 37.2829L22.6294 37.2894L19.3361 30.4092ZM12.4154 44.8842L14.2983 40.946L17.0984 35.1129L20.3854 41.9798L30.2507 41.9734L30.2348 42.0067L44.1051 42.0265L39.0253 52.5313L16.0167 52.4071L12.4154 44.8842Z" fill="#333237"/>
<path d="M25.8789 1.40289L25.9063 1.46051L26.2198 1.46149L40.4532 1.53668L53.8526 29.8209L50.3907 37.0552L50.0479 37.7711H50.1084L40.9405 56.73L14.0811 56.5845L10.6231 49.3599L10.1729 48.4195L10.1631 48.439L1.20706 29.5396L14.8164 1.40289H25.8789ZM16.6475 34.8961L13.8477 40.73L11.9639 44.6685L11.8614 44.8843L11.9649 45.1002L15.5655 52.6226L15.7012 52.9058L16.0137 52.9068L39.0225 53.0308L39.3379 53.0328L39.4756 52.7486L44.5557 42.2437L44.9014 41.5279L44.1055 41.5269L31.0284 41.5074L31.045 41.4732H30.25L20.6992 41.4791L17.5498 34.897L17.0987 33.9566L16.6475 34.8961ZM16.2862 5.37457L4.69241 29.3443L4.5889 29.5591L4.69144 29.7759L9.72269 40.3931L10.1709 41.3404L10.625 40.3951L11.3828 38.817V38.816L22.3545 15.8687H29.3213L28.9785 15.1529L24.292 5.37555L24.1563 5.09137H16.4229L16.2862 5.37457ZM23.834 19.8423L18.8848 30.1939L18.7823 30.4097L18.8848 30.6255L22.1787 37.5054L22.3145 37.7896H22.6299L32.4961 37.7828H32.8116L32.9473 37.4986L36.2129 30.6783L36.3164 30.4615L36.2129 30.2457L31.2256 19.8414L31.0899 19.5582H30.7754L24.2852 19.5572H23.9698L23.834 19.8423ZM28.0157 5.87848L34.5469 19.5582H34.4717L34.8145 20.274L39.6973 30.4605L36.5362 37.064L36.1934 37.7808L36.9873 37.7798L46.3506 37.774H46.666L46.8018 37.4898L50.3741 30.0259L50.4776 29.8111L50.375 29.5963L38.96 5.50153L38.8252 5.21735L38.5108 5.21637L28.4688 5.16266L27.6719 5.15875L28.0157 5.87848Z" stroke="#FA181C" stroke-opacity="0.97"/>
<path d="M65.7293 49.0755V38.0995H62.3656V36.8672H70.3819V38.0995H67.0181V49.0755H65.7293Z" fill="white"/>
<path d="M69.8822 37.3672V37.5997H66.518V48.5753H66.2289V37.5997H62.8656V37.3672H69.8822Z" stroke="#FA181C" stroke-opacity="0.97"/>
<path d="M73.9634 49.2656C72.6325 49.2656 71.637 48.8802 70.9769 48.1093C70.3167 47.3384 69.9867 46.1504 69.9867 44.5453C69.9867 43.1046 70.2696 41.9735 70.8355 41.152C71.4117 40.3179 72.3182 39.9008 73.5547 39.9008C74.2882 39.9008 74.8907 40.0651 75.3623 40.3938C75.8442 40.7097 76.2006 41.152 76.4311 41.7208C76.6721 42.2768 76.7926 42.9088 76.7926 43.6165V45.3036H71.2756C71.3175 45.9861 71.438 46.5232 71.637 46.915C71.8466 47.3067 72.1557 47.591 72.5645 47.7681C72.9835 47.9323 73.5338 48.0144 74.2148 48.0144C74.9797 48.0144 75.6818 47.8565 76.321 47.5405V48.7538C75.9962 48.9181 75.6294 49.0445 75.2208 49.133C74.8225 49.2214 74.4035 49.2656 73.9634 49.2656ZM71.2756 44.1852H75.6452V43.4459C75.6452 42.7128 75.4828 42.1504 75.1579 41.7587C74.8436 41.3543 74.3196 41.152 73.5861 41.152C72.6954 41.152 72.0877 41.4048 71.7628 41.9104C71.438 42.4158 71.2756 43.1741 71.2756 44.1852Z" fill="white"/>
<path d="M73.5551 40.4008C74.2143 40.4009 74.7094 40.5483 75.0765 40.8041L75.0883 40.812C75.4793 41.0682 75.7722 41.4272 75.9672 41.9077V41.9086L75.972 41.9194C76.1816 42.4031 76.2924 42.966 76.2924 43.6166V44.8032H70.7435L70.7767 45.3344C70.8152 45.9617 70.9182 46.5096 71.1058 46.9565L71.1908 47.1411L71.1967 47.1508C71.4596 47.6422 71.8536 48.0052 72.3656 48.227L72.3734 48.2299L72.3822 48.2338C72.8812 48.4293 73.5006 48.5141 74.2152 48.5141C74.7774 48.5141 75.3129 48.4334 75.8207 48.2748V48.4291C75.6844 48.4839 75.5402 48.5349 75.3861 48.5776L75.1146 48.644L75.1127 48.645C74.7527 48.7249 74.3697 48.7661 73.9633 48.7661C72.8073 48.766 72.0006 48.4548 71.4613 47.8989L71.3568 47.7836L71.2562 47.6596C70.7688 47.0112 70.4867 45.9999 70.4867 44.5453C70.4867 43.1631 70.7594 42.1446 71.2474 41.436L71.2465 41.435C71.7083 40.767 72.4422 40.4008 73.5551 40.4008ZM73.5863 40.6518C72.6742 40.6518 71.9008 40.8969 71.432 41.5121L71.3422 41.6401C70.9411 42.2641 70.7758 43.1365 70.7758 44.185V44.685H76.1449V43.4457C76.1449 42.6525 75.9701 41.965 75.5511 41.4526L75.5531 41.4516C75.1082 40.8791 74.4042 40.6518 73.5863 40.6518Z" stroke="#FA181C" stroke-opacity="0.97"/>
<path d="M82.2024 49.2656C80.9031 49.2656 79.939 48.8612 79.3104 48.0524C78.6816 47.231 78.3672 46.0745 78.3672 44.5832C78.3672 43.0035 78.7235 41.8282 79.4361 41.0573C80.1486 40.2864 81.1074 39.9008 82.3125 39.9008C82.8051 39.9008 83.2137 39.945 83.5385 40.0336C83.8633 40.1094 84.1777 40.2358 84.4816 40.4127V41.6449C83.9157 41.3164 83.2713 41.152 82.5483 41.152C81.6262 41.152 80.9135 41.4175 80.4106 41.9483C79.9076 42.4664 79.6561 43.3447 79.6561 44.5832C79.6561 45.7712 79.8762 46.6433 80.3163 47.1993C80.7565 47.7428 81.4847 48.0144 82.5011 48.0144C83.2241 48.0144 83.8896 47.8502 84.4973 47.5216V48.7728C84.1725 48.9371 83.8214 49.0571 83.4442 49.133C83.0775 49.2214 82.6636 49.2656 82.2024 49.2656Z" fill="white"/>
<path d="M82.3125 40.4008C82.7792 40.4008 83.1402 40.4432 83.4073 40.5161L83.416 40.518L83.4248 40.5209C83.6132 40.5649 83.7982 40.6304 83.9815 40.7162V40.8745C83.5336 40.7255 83.0544 40.6518 82.5479 40.6518C81.529 40.6519 80.6721 40.9481 80.0518 41.6C79.4119 42.2591 79.1563 43.3014 79.1563 44.5834C79.1563 45.7377 79.3536 46.6963 79.8262 47.3774L79.9239 47.5092L79.9278 47.5141C80.4999 48.2206 81.4047 48.5141 82.501 48.5141C83.0237 48.5141 83.523 48.4353 83.9971 48.2787V48.4487C83.7923 48.5306 83.5759 48.5967 83.3457 48.643L83.336 48.645L83.3272 48.6469C83.0061 48.7243 82.6322 48.7661 82.2022 48.7661C81.0861 48.766 80.3152 48.4447 79.8037 47.8647L79.7051 47.7455C79.1684 47.0426 78.8672 46.0097 78.8672 44.5834C78.8672 43.1624 79.1692 42.169 79.6953 41.5219L79.8037 41.3969C80.4073 40.744 81.2243 40.4008 82.3125 40.4008Z" stroke="#FA181C" stroke-opacity="0.97"/>
<path d="M85.9423 49.0755V36.2985H87.2312V41.0568C87.577 40.7156 87.9805 40.4375 88.4415 40.2227C88.9131 40.0077 89.4579 39.9003 90.0762 39.9003C90.9773 39.9003 91.6533 40.1658 92.1038 40.6966C92.5545 41.2274 92.7797 42.0615 92.7797 43.1989V49.0755H91.4909V43.2558C91.4909 42.4722 91.3441 41.9288 91.0508 41.6254C90.7678 41.3096 90.2963 41.1515 89.636 41.1515C89.217 41.1515 88.7821 41.2652 88.3315 41.4927C87.8914 41.7076 87.5246 41.992 87.2312 42.3458V49.0755H85.9423Z" fill="white"/>
<path d="M90.0761 40.4001C90.7766 40.4001 91.2594 40.5783 91.5898 40.8825L91.7226 41.0202C92.0609 41.4187 92.2792 42.11 92.2792 43.1989V48.5758H91.9911V43.2555C91.9911 42.4417 91.8446 41.7275 91.4101 41.278H91.4091C90.9891 40.8204 90.3522 40.651 89.6357 40.651C89.1261 40.6511 88.6165 40.7899 88.1122 41.0436C88.0062 41.0954 87.9038 41.1513 87.8046 41.2106C88.0545 41.0017 88.3349 40.8228 88.6483 40.6764L88.6493 40.6774C89.0443 40.4974 89.516 40.4001 90.0761 40.4001ZM86.7314 36.7985V48.5758H86.4423V36.7985H86.7314Z" stroke="#FA181C" stroke-opacity="0.97"/>
<path d="M97.9199 49.2655C96.8721 49.2655 96.0337 48.9875 95.4051 48.4313C94.7763 47.8753 94.4619 47.1296 94.4619 46.1944C94.4619 45.3351 94.682 44.5957 95.1221 43.9764C95.5621 43.3572 96.1648 42.8074 96.9297 42.3272C96.521 41.8344 96.1752 41.373 95.8923 40.9434C95.6093 40.5137 95.4679 39.9954 95.4679 39.3889C95.4679 38.6306 95.6827 37.9923 96.1124 37.4742C96.5525 36.9434 97.1707 36.6781 97.9671 36.6781C98.7426 36.6781 99.3451 36.9244 99.7747 37.4173C100.204 37.9102 100.419 38.5674 100.419 39.3889C100.419 40.0713 100.267 40.6464 99.963 41.114C99.6593 41.5816 99.2245 42.0555 98.6587 42.5358L101.268 45.7395C101.446 45.2719 101.535 44.6779 101.535 43.9575V43.6921H102.557V43.9575C102.557 44.4505 102.509 44.9306 102.415 45.3982C102.321 45.8659 102.185 46.2703 102.007 46.6115L103.421 48.3366L102.635 49.1897L101.378 47.6921C101.011 48.2355 100.534 48.6336 99.9476 48.8864C99.3608 49.1392 98.6848 49.2655 97.9199 49.2655ZM97.857 41.7775C98.3495 41.411 98.7215 41.0635 98.9731 40.7348C99.2245 40.3936 99.3503 39.9639 99.3503 39.4458C99.3503 38.9655 99.2403 38.5863 99.0202 38.3083C98.8106 38.0177 98.4596 37.8724 97.9671 37.8724C97.4641 37.8724 97.0973 38.024 96.8668 38.3273C96.6468 38.6306 96.5368 39.0034 96.5368 39.4458C96.5368 39.8502 96.652 40.223 96.8825 40.5642C97.1236 40.9054 97.4483 41.3098 97.857 41.7775ZM97.9199 48.147C98.5276 48.147 99.0464 48.0396 99.476 47.8248C99.9161 47.5972 100.288 47.2624 100.592 46.8201L97.7155 43.275C97.0345 43.6542 96.5262 44.0649 96.1909 44.5072C95.8661 44.9369 95.7036 45.4867 95.7036 46.1566C95.7036 46.8136 95.9132 47.3129 96.3324 47.6541C96.7516 47.9827 97.2807 48.147 97.9199 48.147Z" fill="#FB8351"/>
<path d="M97.9668 37.1781C98.5449 37.1781 98.9644 37.3348 99.2725 37.6175L99.3975 37.7455C99.7288 38.1258 99.9189 38.6564 99.9189 39.389C99.9189 39.9208 99.8159 40.3507 99.6289 40.6976L99.5439 40.8412V40.8421C99.3414 41.1541 99.0665 41.4785 98.7139 41.8148L98.335 42.1546L97.9619 42.472L98.2715 42.8519L100.88 46.055L101.428 46.7269L101.436 46.7035L101.62 46.9281L102.759 48.3167L102.652 48.433L101.761 47.3705L101.334 46.8626L100.963 47.4124C100.688 47.8204 100.345 48.1275 99.9316 48.3412L99.75 48.4271C99.2368 48.6482 98.63 48.766 97.9199 48.766C97.0823 48.766 96.4342 48.5722 95.9395 48.2181L95.7363 48.057C95.2279 47.6073 94.962 47.0048 94.9619 46.1947C94.9619 45.5213 95.1117 44.951 95.3984 44.4681L95.5293 44.266C95.9248 43.7093 96.4757 43.2021 97.1953 42.7503L97.6787 42.4476L97.3145 42.0081C97.0147 41.6467 96.7514 41.3054 96.5244 40.9837L96.3096 40.6683C96.0895 40.3341 95.9678 39.9155 95.9678 39.389C95.9678 38.8137 96.1081 38.3425 96.375 37.9544L96.4971 37.7933C96.8268 37.3956 97.2936 37.1781 97.9668 37.1781ZM97.4727 42.8382C96.8437 43.1884 96.3279 43.5779 95.9473 44.015L95.792 44.2054C95.387 44.7412 95.2031 45.4048 95.2031 46.1566C95.2031 46.8801 95.4249 47.5031 95.915 47.9544L96.0166 48.0423L96.0244 48.0472C96.5482 48.4577 97.192 48.6468 97.9199 48.6468C98.5022 48.6468 99.034 48.5568 99.5029 48.3617L99.6992 48.2718L99.7061 48.2689C100.225 48.0004 100.657 47.6077 101.004 47.1039L101.216 46.7953L100.98 46.5052L98.1035 42.9603L97.8389 42.6341L97.4727 42.8382ZM102.052 44.1917C102.039 44.5701 101.997 44.9397 101.925 45.3001C101.838 45.7309 101.715 46.0888 101.563 46.3802L101.548 46.4085L101.735 45.9173C101.92 45.431 102.014 44.8511 102.031 44.1917H102.052ZM97.9668 37.3724C97.4376 37.3725 96.9579 37.5151 96.6094 37.8626L96.4688 38.0247L96.4619 38.0335C96.1694 38.4368 96.0371 38.9175 96.0371 39.4456C96.0371 39.8887 96.1489 40.304 96.3682 40.6839L96.4678 40.8441L96.4746 40.8529C96.7291 41.213 97.0655 41.6319 97.4805 42.1068L97.7852 42.4544L98.1553 42.179C98.6046 41.8447 98.976 41.5124 99.2559 41.181L99.3701 41.0384L99.376 41.0316C99.7037 40.5868 99.8506 40.0463 99.8506 39.4456C99.8506 38.9006 99.7262 38.4064 99.4248 38.016H99.4258C99.0898 37.5501 98.5551 37.3724 97.9668 37.3724Z" stroke="#FA181C" stroke-opacity="0.97"/>
<path d="M62.8734 28.0057V11.1019H66.965V24.2259H73.2764V28.0057H62.8734Z" fill="#FB8351"/>
<path d="M66.4652 11.6019V24.726H72.7767V27.5062H63.3734V11.6019H66.4652Z" stroke="#FA181C" stroke-opacity="0.97"/>
<path d="M79.8586 28.2684C77.7984 28.2684 76.2749 27.7171 75.2883 26.6147C74.3163 25.5122 73.8302 23.9023 73.8302 21.785C73.8302 19.6852 74.3235 18.0841 75.3101 16.9816C76.2967 15.8617 77.8129 15.3017 79.8586 15.3017C81.919 15.3017 83.4424 15.8617 84.429 16.9816C85.4302 18.0841 85.9308 19.6852 85.9308 21.785C85.9308 23.9023 85.4374 25.5122 84.4508 26.6147C83.4642 27.7171 81.9335 28.2684 79.8586 28.2684ZM79.8586 24.6723C80.5261 24.6723 81.0049 24.4449 81.2951 23.9898C81.5998 23.5349 81.7521 22.7999 81.7521 21.785C81.7521 20.7876 81.5998 20.0614 81.2951 19.6065C81.0049 19.1339 80.5261 18.8977 79.8586 18.8977C79.2058 18.8977 78.7342 19.1339 78.444 19.6065C78.1538 20.0614 78.0088 20.7876 78.0088 21.785C78.0088 22.7999 78.1538 23.5349 78.444 23.9898C78.7342 24.4449 79.2058 24.6723 79.8586 24.6723Z" fill="#FB8351"/>
<path d="M79.8585 15.8017C81.709 15.8017 83.0217 16.2718 83.8868 17.1347L84.0538 17.3125L84.0587 17.3174C84.9475 18.296 85.4308 19.7588 85.4308 21.7851C85.4308 23.7039 85.011 25.1168 84.2374 26.0918L84.0782 26.2812C83.2198 27.2404 81.8502 27.7685 79.8585 27.7685C78.0064 27.7685 76.693 27.3048 75.8282 26.456L75.6613 26.2812C74.8004 25.3032 74.3302 23.8317 74.3302 21.7851C74.3302 19.8836 74.7493 18.4785 75.5236 17.5039L75.6827 17.3154L75.6857 17.3125C76.5459 16.336 77.9009 15.8017 79.8585 15.8017ZM79.8585 18.3974C79.1175 18.3975 78.4987 18.6599 78.0958 19.2275L78.0177 19.3447C77.6522 19.9229 77.5089 20.7659 77.5089 21.7851C77.5089 22.7591 77.6359 23.5714 77.9562 24.1465L78.0226 24.2588C78.4249 24.8895 79.0765 25.1718 79.8585 25.1718C80.6503 25.1718 81.3125 24.8931 81.7169 24.2588L81.7159 24.2578C82.1008 23.6761 82.2521 22.8208 82.2521 21.7851C82.2521 20.8232 82.1177 20.0161 81.7804 19.4404L81.7101 19.3281C81.3083 18.6873 80.6515 18.3974 79.8585 18.3974Z" stroke="#FA181C" stroke-opacity="0.97"/>
<path d="M91.9904 32.6255C91.4826 32.6255 90.9312 32.5993 90.3364 32.5468C89.7415 32.5118 89.1756 32.4418 88.6388 32.3368C88.1165 32.2319 87.6812 32.1093 87.333 31.9693V28.8195C87.7248 28.977 88.1745 29.1083 88.6823 29.2133C89.2047 29.3182 89.7342 29.397 90.2711 29.4495C90.8079 29.502 91.3012 29.5283 91.751 29.5283C92.52 29.5283 93.1221 29.4758 93.5574 29.3708C94.0072 29.2833 94.232 29.1171 94.232 28.8721C94.232 28.6621 94.1595 28.5221 94.0144 28.4521C93.8693 28.3995 93.5936 28.3733 93.1874 28.3733H90.467C89.4078 28.3733 88.588 28.1721 88.0077 27.7696C87.4418 27.3497 87.1589 26.7285 87.1589 25.906C87.1589 24.751 87.6884 23.9462 88.7476 23.4912C88.1528 23.1237 87.7175 22.66 87.4418 22.1C87.1662 21.5401 87.0283 20.8313 87.0283 19.9739C87.0283 18.364 87.4781 17.1828 88.3776 16.4304C89.2917 15.678 90.6048 15.3017 92.3169 15.3017C92.6796 15.3017 93.0858 15.3367 93.5356 15.4067C93.9854 15.4592 94.3118 15.5118 94.515 15.5642H98.563L98.4759 18.5565H97.1048C97.366 18.959 97.4966 19.449 97.4966 20.0264C97.4966 21.3039 97.1846 22.3188 96.5607 23.0713C95.9514 23.8061 94.9865 24.1737 93.6662 24.1737C93.4775 24.1737 93.2745 24.1649 93.0568 24.1473C92.8391 24.1124 92.636 24.0862 92.4474 24.0686C92.1282 24.1037 91.8525 24.1737 91.6204 24.2786C91.3883 24.3836 91.2722 24.5586 91.2722 24.8036C91.2722 24.9786 91.3375 25.1011 91.4681 25.171C91.5987 25.2236 91.78 25.2498 92.0122 25.2498H94.3844C95.4435 25.2498 96.2778 25.5473 96.8872 26.1423C97.4966 26.7372 97.8013 27.6121 97.8013 28.7671C97.8013 29.992 97.3297 30.9369 96.3867 31.6018C95.4435 32.2843 93.9782 32.6255 91.9904 32.6255ZM92.3386 21.4701C92.977 21.4701 93.4196 21.3388 93.6662 21.0763C93.9129 20.8139 94.0361 20.3764 94.0361 19.764C94.0361 19.1514 93.9129 18.7052 93.6662 18.4253C93.4196 18.1453 92.977 18.0053 92.3386 18.0053C91.7438 18.0053 91.3085 18.1453 91.0328 18.4253C90.7716 18.6878 90.641 19.1339 90.641 19.764C90.641 20.3589 90.7644 20.7964 91.011 21.0763C91.2722 21.3388 91.7147 21.4701 92.3386 21.4701Z" fill="#FB8351"/>
<path d="M92.3164 15.8017C92.6479 15.8017 93.0287 15.8334 93.459 15.9004L93.4678 15.9023L93.4775 15.9033C93.9241 15.9555 94.2216 16.0055 94.3896 16.0488L94.4512 16.0644H98.0488L97.9902 18.0566H96.1846L96.6855 18.8291C96.8841 19.1353 96.9971 19.5258 96.9971 20.0263C96.9971 21.1487 96.7407 22.0017 96.2725 22.6299L96.1758 22.7519C95.694 23.333 94.8974 23.6738 93.666 23.6738C93.4983 23.6738 93.3156 23.6659 93.1172 23.6504C92.8973 23.6154 92.6895 23.5885 92.4941 23.5703L92.4434 23.5664L92.3926 23.5713C92.1238 23.6008 91.8715 23.6535 91.6396 23.7334L91.4141 23.8232C91.2309 23.9061 91.0624 24.031 90.9424 24.2119C90.8214 24.3942 90.7725 24.5996 90.7725 24.8037C90.7725 25.1226 90.9065 25.4379 91.2324 25.6123L91.2559 25.625L91.2812 25.6347C91.4973 25.7217 91.752 25.7499 92.0117 25.75H94.3848C95.2263 25.75 95.865 25.9546 96.3428 26.3291L96.5381 26.5C97.0207 26.9711 97.3018 27.6978 97.3018 28.7675C97.3017 29.7743 96.9481 30.5293 96.2441 31.0849L96.0986 31.1933L96.0938 31.1972C95.2775 31.7878 93.9395 32.1259 91.9902 32.1259C91.4995 32.1259 90.9632 32.1002 90.3809 32.0488L90.373 32.0478H90.3652C89.7909 32.0141 89.2472 31.9459 88.7344 31.8457H88.7334C88.3862 31.7758 88.0872 31.698 87.833 31.6162V29.5175C87.9498 29.5515 88.0694 29.5848 88.1924 29.6152L88.5811 29.7031H88.584C88.9882 29.7843 89.3963 29.8506 89.8086 29.9013L90.2227 29.9472C90.7723 30.0009 91.2821 30.0283 91.751 30.0283C92.5241 30.0283 93.1636 29.9752 93.6523 29.8603L93.6533 29.8613C93.9098 29.8114 94.1619 29.7296 94.3604 29.583C94.5797 29.4208 94.7324 29.1772 94.7324 28.872C94.7324 28.5394 94.6039 28.1817 94.2314 28.0019L94.209 27.9902L94.1846 27.9824L94.0898 27.9521C93.8558 27.89 93.5366 27.873 93.1875 27.873H90.4668C89.4637 27.873 88.7603 27.6812 88.2959 27.3603C87.8858 27.0514 87.6592 26.5948 87.6592 25.9062C87.6592 25.4068 87.7725 25.0167 87.9736 24.7109C88.1748 24.4051 88.4878 24.1467 88.9453 23.9502L89.8281 23.5713L89.0107 23.0664C88.5515 22.7826 88.2132 22.4432 87.9824 22.0508L87.8906 21.8789C87.659 21.4085 87.5283 20.7814 87.5283 19.9736C87.5284 18.4559 87.9493 17.4422 88.6953 16.8164C89.4874 16.1645 90.6701 15.8018 92.3164 15.8017ZM92.3389 17.5049C91.6791 17.5049 91.0871 17.6591 90.6787 18.0722C90.2771 18.4758 90.1407 19.0884 90.1406 19.7636C90.1406 20.3308 90.2424 20.8477 90.5107 21.2441L90.6357 21.4072L90.6455 21.4179L90.6562 21.4287C91.0581 21.8325 91.6677 21.9697 92.3389 21.9697C92.9737 21.9697 93.56 21.8526 93.9541 21.4941L94.0303 21.4189C94.4079 21.0172 94.5361 20.4205 94.5361 19.7636C94.5361 19.185 94.4366 18.658 94.167 18.2578L94.041 18.0947C93.6501 17.6511 93.0233 17.5049 92.3389 17.5049Z" stroke="#FA181C" stroke-opacity="0.97"/>
<path d="M105.236 28.2684C103.175 28.2684 101.652 27.7171 100.665 26.6147C99.6927 25.5122 99.2067 23.9023 99.2067 21.785C99.2067 19.6852 99.7 18.0841 100.686 16.9816C101.673 15.8617 103.19 15.3017 105.236 15.3017C107.295 15.3017 108.819 15.8617 109.806 16.9816C110.807 18.0841 111.307 19.6852 111.307 21.785C111.307 23.9023 110.814 25.5122 109.827 26.6147C108.84 27.7171 107.31 28.2684 105.236 28.2684ZM105.236 24.6723C105.902 24.6723 106.381 24.4449 106.672 23.9898C106.976 23.5349 107.129 22.7999 107.129 21.785C107.129 20.7876 106.976 20.0614 106.672 19.6065C106.381 19.1339 105.902 18.8977 105.236 18.8977C104.583 18.8977 104.111 19.1339 103.82 19.6065C103.53 20.0614 103.385 20.7876 103.385 21.785C103.385 22.7999 103.53 23.5349 103.82 23.9898C104.111 24.4449 104.583 24.6723 105.236 24.6723Z" fill="#FB8351"/>
<path d="M105.236 15.8017C107.086 15.8018 108.398 16.2718 109.263 17.1347L109.43 17.3125L109.435 17.3183C110.324 18.2969 110.807 19.7588 110.807 21.7851C110.807 23.7039 110.388 25.1168 109.614 26.0918L109.455 26.2812C108.596 27.2405 107.227 27.7685 105.236 27.7685C103.383 27.7685 102.07 27.3049 101.205 26.456L101.038 26.2812C100.177 25.3032 99.7067 23.8317 99.7067 21.7851C99.7067 19.8839 100.125 18.4785 100.899 17.5039L101.059 17.3154L101.061 17.3125C101.922 16.3359 103.278 15.8017 105.236 15.8017ZM105.236 18.3974C104.495 18.3974 103.876 18.6595 103.472 19.2265L103.398 19.3379C103.03 19.9162 102.885 20.7617 102.885 21.7851C102.885 22.759 103.012 23.5714 103.332 24.1465L103.398 24.2588H103.399C103.802 24.8892 104.454 25.1718 105.236 25.1718C106.027 25.1718 106.688 24.8924 107.093 24.2588L107.092 24.2578C107.477 23.6763 107.63 22.8213 107.63 21.7851C107.63 20.7588 107.476 19.9088 107.088 19.3281H107.087C106.684 18.6878 106.028 18.3975 105.236 18.3974Z" stroke="#FA181C" stroke-opacity="0.97"/>
<path d="M113.106 13.91V10.3403H117.524V13.91H113.106ZM113.432 28.0053V19.1597H111.931L112.278 15.5638H117.524V28.0053H113.432Z" fill="white"/>
<path d="M117.024 16.0639V27.5053H113.932V18.6596H112.482L112.732 16.0639H117.024ZM117.024 10.8403V13.4096H113.606V10.8403H117.024Z" stroke="#FA181C" stroke-opacity="0.97"/>
<path d="M119.486 33.6754V15.5642H123.034L123.23 16.5615C123.65 16.1592 124.107 15.8529 124.6 15.643C125.108 15.4154 125.696 15.3017 126.363 15.3017C127.901 15.3017 129.084 15.7741 129.911 16.719C130.752 17.6465 131.173 19.2302 131.173 21.47C131.173 23.6924 130.731 25.3809 129.846 26.5359C128.961 27.6909 127.742 28.2682 126.189 28.2682C125.159 28.2682 124.289 28.0321 123.577 27.5596V33.6754H119.486ZM125.145 24.6723C125.74 24.6723 126.197 24.4185 126.516 23.9111C126.835 23.4036 126.995 22.6162 126.995 21.5487C126.995 20.5163 126.842 19.8164 126.538 19.449C126.247 19.0814 125.798 18.8977 125.188 18.8977C124.579 18.8977 124.042 19.1427 123.577 19.6327V24.0424C123.81 24.2523 124.042 24.4098 124.274 24.5148C124.506 24.6197 124.796 24.6723 125.145 24.6723Z" fill="white"/>
<path d="M126.363 15.8017C127.703 15.8017 128.694 16.1831 129.398 16.9004L129.535 17.0488L129.541 17.0547C130.254 17.8408 130.674 19.2659 130.674 21.4697C130.674 23.5018 130.292 25.002 129.593 26.0322L129.449 26.2314C128.666 27.2536 127.598 27.7685 126.189 27.7685C125.237 27.7685 124.468 27.5504 123.853 27.1425L123.077 26.6279V33.1758H119.986V16.0644H122.623L122.739 16.6582L122.916 17.5556L123.576 16.9228C123.908 16.6044 124.261 16.3571 124.635 16.1767L124.796 16.1035L124.804 16.0996C125.237 15.906 125.752 15.8018 126.363 15.8017ZM125.187 18.3974C124.426 18.3975 123.762 18.711 123.215 19.2881L123.077 19.4336V24.2646L123.243 24.414C123.505 24.6503 123.78 24.8401 124.068 24.9707C124.384 25.1135 124.749 25.1718 125.144 25.1718C125.865 25.1718 126.452 24.8706 126.86 24.2959L126.939 24.1777C127.334 23.5498 127.495 22.6466 127.495 21.5488C127.495 21.011 127.455 20.539 127.369 20.1425C127.283 19.7505 127.145 19.3981 126.923 19.1299H126.922C126.509 18.615 125.896 18.3974 125.187 18.3974Z" stroke="#FA181C" stroke-opacity="0.97"/>
<path d="M136.626 28.2682C135.741 28.2682 134.907 28.1896 134.123 28.0321C133.354 27.8921 132.745 27.7083 132.295 27.4808V23.9373C132.803 24.2174 133.405 24.436 134.101 24.5935C134.813 24.751 135.415 24.8298 135.907 24.8298C136.43 24.8298 136.821 24.8123 137.083 24.7772C137.359 24.7423 137.496 24.5935 137.496 24.3311C137.496 24.0336 137.257 23.8061 136.778 23.6486C136.3 23.4911 135.698 23.2636 134.972 22.9662C134.028 22.5636 133.324 22.0913 132.86 21.5487C132.396 21.0063 132.164 20.2189 132.164 19.1864C132.164 17.944 132.571 16.9904 133.383 16.3254C134.196 15.643 135.472 15.3017 137.213 15.3017C137.881 15.3017 138.57 15.3629 139.281 15.4854C139.991 15.6079 140.55 15.7479 140.957 15.9054V19.3702C140.521 19.1427 140.042 18.9764 139.52 18.8715C139.012 18.7664 138.548 18.714 138.127 18.714C137.663 18.714 137.249 18.7402 136.887 18.7927C136.524 18.8451 136.343 18.9939 136.343 19.2389C136.343 19.5188 136.546 19.7202 136.953 19.8426C137.372 19.9652 137.932 20.1576 138.628 20.4201C139.412 20.7 140.021 21.0063 140.456 21.3388C140.906 21.6713 141.218 22.0737 141.392 22.5462C141.58 23.0187 141.675 23.6048 141.675 24.3048C141.675 25.5648 141.246 26.5446 140.391 27.2446C139.549 27.927 138.294 28.2682 136.626 28.2682Z" fill="white"/>
<path d="M137.213 15.8017C137.691 15.8017 138.182 15.8341 138.687 15.9004L139.196 15.9785C139.709 16.0668 140.127 16.1624 140.456 16.2627V18.6103C140.188 18.516 139.909 18.4391 139.619 18.3808H139.618C139.086 18.2708 138.588 18.2138 138.127 18.2138C137.766 18.2138 137.429 18.2291 137.118 18.2607L136.815 18.2978C136.59 18.3304 136.352 18.4008 136.161 18.5566C135.949 18.7309 135.843 18.9749 135.843 19.2392C135.843 19.5161 135.95 19.763 136.144 19.955C136.28 20.0894 136.447 20.1864 136.626 20.2578L136.808 20.3213L136.813 20.3222C137.014 20.381 137.251 20.4576 137.524 20.5517L138.452 20.8877L138.459 20.8906C139.122 21.1273 139.631 21.3757 140.002 21.6279L140.153 21.7363L140.159 21.7412C140.539 22.0224 140.786 22.348 140.923 22.7187L141.392 22.5459L140.923 22.7197L140.928 22.7304C141.086 23.127 141.175 23.6465 141.175 24.3047C141.175 25.4371 140.797 26.2653 140.076 26.8564C139.359 27.4366 138.237 27.7685 136.625 27.7685C135.877 27.7685 135.17 27.71 134.504 27.5947L134.222 27.542L134.213 27.54L133.689 27.4316C133.339 27.3494 133.042 27.2561 132.794 27.1562V24.7187C133.085 24.8323 133.393 24.9316 133.72 25.0156L133.991 25.081L133.993 25.082C134.724 25.244 135.365 25.33 135.907 25.33C136.432 25.33 136.849 25.3117 137.145 25.2724L137.146 25.2734C137.357 25.2466 137.586 25.1666 137.76 24.9785C137.937 24.7867 137.995 24.5491 137.995 24.331C137.995 23.767 137.584 23.4353 137.13 23.2461L136.935 23.1738C136.473 23.0218 135.885 22.7998 135.167 22.5058H135.168C134.379 22.1693 133.798 21.7957 133.4 21.3965L133.241 21.2236C132.882 20.8048 132.664 20.1519 132.664 19.1865C132.664 18.0639 133.024 17.2641 133.699 16.7119L133.7 16.7129L133.704 16.708C134.385 16.1365 135.52 15.8017 137.213 15.8017Z" stroke="#FA181C" stroke-opacity="0.97"/>
<path d="M146.948 28.2678C145.744 28.2678 144.801 27.8567 144.119 27.0342C143.437 26.2117 143.097 25.0044 143.097 23.4119V15.5638H147.188V23.0183C147.188 24.1031 147.645 24.6457 148.558 24.6457C148.892 24.6457 149.219 24.5582 149.538 24.3832C149.858 24.2082 150.111 23.9894 150.3 23.7269V15.5638H154.391V28.0053H150.561L150.453 27.0604C150.047 27.4104 149.545 27.6992 148.951 27.9266C148.371 28.1541 147.703 28.2678 146.948 28.2678Z" fill="white"/>
<path d="M146.688 16.0638V23.0179C146.688 23.6185 146.813 24.1625 147.149 24.5609C147.498 24.9756 148 25.1458 148.559 25.1458C148.931 25.1458 149.29 25.06 149.633 24.8968L149.778 24.8216C150.155 24.6151 150.469 24.3486 150.706 24.0189L150.8 23.888V16.0638H153.891V27.5052H151.007L150.949 27.0032L150.842 26.0657L150.126 26.6819C149.815 26.9494 149.433 27.183 148.974 27.3782L148.773 27.4593L148.769 27.4612C148.257 27.6617 147.653 27.7678 146.948 27.7679C145.872 27.7679 145.078 27.4078 144.503 26.7151H144.504C143.926 26.0173 143.597 24.9433 143.597 23.4124V16.0638H146.688Z" stroke="#FA181C" stroke-opacity="0.97"/>
<path d="M156.34 28.0058V15.5642H160.126L160.235 16.5615C160.686 16.1941 161.186 15.8967 161.737 15.6692C162.303 15.4242 162.92 15.3017 163.587 15.3017C164.254 15.3017 164.777 15.4154 165.153 15.643C165.531 15.8703 165.836 16.2028 166.068 16.6403C166.532 16.2379 167.055 15.9142 167.635 15.6692C168.229 15.4242 168.927 15.3017 169.724 15.3017C170.929 15.3017 171.814 15.6866 172.379 16.4566C172.945 17.209 173.228 18.364 173.228 19.9213V28.0058H169.202V20.4988C169.202 19.9388 169.108 19.5452 168.919 19.3177C168.731 19.0727 168.418 18.9502 167.983 18.9502C167.417 18.9502 166.953 19.1952 166.591 19.6851C166.619 19.9126 166.634 20.1314 166.634 20.3413C166.634 20.5338 166.634 20.7526 166.634 20.9976V28.0058H162.847V20.4201C162.847 19.9126 162.775 19.5452 162.63 19.3177C162.484 19.0727 162.209 18.9502 161.803 18.9502C161.526 18.9502 161.258 19.0377 160.997 19.2127C160.735 19.3877 160.503 19.5976 160.301 19.8426V28.0058H156.34Z" fill="white"/>
<path d="M169.725 15.8017C170.747 15.8018 171.439 16.1024 171.89 16.6416L171.977 16.7529L171.979 16.7568C172.45 17.3821 172.728 18.4074 172.728 19.9209V27.5058H169.701V20.499C169.701 19.9213 169.611 19.382 169.314 19.0136H169.315C169.314 19.0122 169.313 19.0111 169.311 19.0097C169.309 19.0061 169.307 19.0016 169.304 18.998L169.302 18.999C168.984 18.597 168.499 18.4502 167.982 18.4502C167.244 18.4503 166.636 18.7818 166.188 19.3877L166.07 19.5488L166.095 19.747C166.121 19.9568 166.134 20.1552 166.134 20.3418V27.5058H163.347V20.4199C163.347 19.8944 163.277 19.4123 163.059 19.0615H163.06C163.058 19.0585 163.056 19.0557 163.054 19.0527C163.053 19.0515 163.052 19.05 163.052 19.0488H163.051C162.778 18.6036 162.298 18.4502 161.803 18.4502C161.463 18.4502 161.142 18.5461 160.845 18.7187L160.719 18.7968C160.492 18.9485 160.285 19.1235 160.097 19.3203L159.915 19.5244L159.801 19.6631V27.5058H156.84V16.0644H159.679L159.738 16.6152L159.838 17.5312L160.551 16.9492C160.86 16.6973 161.195 16.4805 161.557 16.2998L161.928 16.1318L161.936 16.1279C162.433 15.9123 162.982 15.8018 163.587 15.8017C164.128 15.8017 164.518 15.8836 164.787 16.0127L164.895 16.0713C165.186 16.2461 165.431 16.5074 165.626 16.875L165.921 17.4297L166.395 17.0175C166.817 16.6517 167.293 16.3557 167.825 16.1308L167.826 16.1318C168.347 15.917 168.977 15.8017 169.725 15.8017Z" stroke="#FA181C" stroke-opacity="0.97"/>
<path d="M110.085 49.4223C108.995 49.4223 108.089 49.1758 107.365 48.6829C106.654 48.1774 106.119 47.4759 105.763 46.5787C105.406 45.6688 105.229 44.6072 105.229 43.3939C105.229 42.067 105.396 40.9105 105.731 39.9248C106.066 38.9391 106.59 38.1807 107.303 37.6499C108.016 37.1066 108.937 36.8348 110.069 36.8348C110.656 36.8348 111.185 36.8853 111.657 36.9864C112.139 37.0876 112.589 37.2265 113.009 37.4036V38.7685C112.589 38.5789 112.145 38.4335 111.673 38.3324C111.201 38.2187 110.704 38.1618 110.18 38.1618C109.268 38.1618 108.545 38.3703 108.01 38.7874C107.476 39.2044 107.094 39.8047 106.863 40.5883C106.632 41.3719 106.517 42.3071 106.517 43.3939C106.517 44.8978 106.811 46.0605 107.397 46.8821C107.995 47.6909 108.933 48.0953 110.21 48.0953C110.682 48.0953 111.159 48.051 111.641 47.9625C112.133 47.8741 112.589 47.7351 113.009 47.5455V48.9294C112.6 49.0811 112.155 49.201 111.673 49.2896C111.201 49.3781 110.672 49.4223 110.085 49.4223Z" fill="white"/>
<path d="M110.069 37.3348C110.488 37.3348 110.87 37.3624 111.217 37.4149L111.552 37.4754H111.554C111.89 37.546 112.209 37.6355 112.509 37.744V38.0389C112.272 37.9617 112.028 37.8972 111.778 37.8436H111.777C111.268 37.7221 110.736 37.662 110.18 37.662C109.256 37.662 108.457 37.8598 107.826 38.3016L107.702 38.3934C107.149 38.8253 106.748 39.4134 106.487 40.1317L106.383 40.4471C106.135 41.2888 106.017 42.2745 106.017 43.3944C106.017 44.8568 106.283 46.0735 106.868 46.993L106.99 47.1727L106.995 47.1795C107.712 48.1496 108.822 48.5955 110.21 48.5956C110.713 48.5956 111.219 48.5473 111.729 48.4539L111.73 48.4549C111.998 48.4067 112.258 48.3435 112.509 48.2664V48.5702C112.32 48.6291 112.123 48.683 111.917 48.7293L111.582 48.7977H111.58C111.145 48.8793 110.648 48.9227 110.085 48.9227C109.198 48.9227 108.473 48.7473 107.889 48.4198L107.647 48.2694C107.104 47.8816 106.673 47.3602 106.357 46.6913L106.228 46.3944C105.899 45.5555 105.729 44.5589 105.729 43.3944C105.729 42.2685 105.853 41.2851 106.094 40.4393L106.204 40.0858C106.474 39.2923 106.868 38.6819 107.377 38.2332L107.602 38.0506L107.607 38.0477C108.212 37.5865 109.018 37.3349 110.069 37.3348Z" stroke="#FA181C" stroke-opacity="0.97"/>
<path d="M118.301 49.4218C117.002 49.4218 116.054 49.0236 115.456 48.2275C114.87 47.4186 114.577 46.2559 114.577 44.7394C114.577 43.2354 114.876 42.079 115.472 41.2702C116.07 40.4614 117.013 40.0569 118.301 40.0569C119.59 40.0569 120.534 40.4614 121.13 41.2702C121.728 42.079 122.027 43.2354 122.027 44.7394C122.027 46.2559 121.734 47.4186 121.146 48.2275C120.56 49.0236 119.612 49.4218 118.301 49.4218ZM118.301 48.0948C119.192 48.0948 119.821 47.8293 120.188 47.2985C120.554 46.7552 120.738 45.9021 120.738 44.7394C120.738 43.5766 120.55 42.73 120.172 42.1991C119.805 41.6556 119.182 41.3839 118.301 41.3839C117.422 41.3839 116.793 41.6556 116.416 42.1991C116.049 42.73 115.866 43.5766 115.866 44.7394C115.866 45.9021 116.049 46.7552 116.416 47.2985C116.783 47.8293 117.411 48.0948 118.301 48.0948Z" fill="white"/>
<path d="M118.301 40.5569C119.408 40.557 120.154 40.8773 120.635 41.4495L120.728 41.5667V41.5677C121.238 42.2573 121.527 43.2923 121.527 44.7396C121.527 46.2001 121.243 47.2415 120.744 47.931C120.281 48.5596 119.509 48.9221 118.301 48.9222C117.182 48.9222 116.43 48.6048 115.949 48.0433L115.856 47.9271C115.359 47.2374 115.077 46.1972 115.077 44.7396C115.077 43.2922 115.366 42.2565 115.875 41.5667L115.874 41.5657C116.351 40.92 117.123 40.5569 118.301 40.5569ZM118.301 40.8841C117.38 40.8841 116.607 41.1557 116.102 41.7835L116.005 41.9144V41.9153C115.55 42.5735 115.366 43.5464 115.366 44.7396C115.366 45.8597 115.528 46.7874 115.92 47.4495L116.002 47.5784L116.005 47.5823C116.497 48.2958 117.314 48.595 118.301 48.595C119.227 48.595 120.003 48.3321 120.503 47.7112L120.602 47.5784C121.053 46.9102 121.238 45.9344 121.238 44.7396C121.238 43.5509 121.05 42.5788 120.586 41.9193H120.587C120.097 41.1931 119.285 40.8841 118.301 40.8841Z" stroke="#FA181C" stroke-opacity="0.97"/>
<path d="M123.602 49.2325V47.9246H124.765V49.2325H123.602Z" fill="white"/>
<path d="M124.264 48.4246V48.7322H124.102V48.4246H124.264Z" stroke="#FA181C" stroke-opacity="0.97"/>
</svg>
