<svg width="234" height="58" viewBox="0 0 234 58" fill="none" xmlns="http://www.w3.org/2000/svg">
<path d="M33.3804 47.6002L2.07629 21.557C-1.096 18.918 -0.0176295 13.4232 3.93813 12.131L37.2088 1.24024C37.9135 0.933526 38.6688 0.833963 39.4119 0.949815C40.1549 1.06567 40.8644 1.39359 41.4813 1.90637C42.0983 2.41915 42.6049 3.10199 42.9592 3.89823C43.3135 4.69447 43.5052 5.58114 43.5184 6.48464L41.5467 43.4164C41.3128 47.8001 36.5527 50.2392 33.3804 47.6002Z" fill="#E9327C"/>
<path d="M39.0921 1.41464L39.3352 1.44394C39.9019 1.53236 40.4528 1.76281 40.9514 2.12656L41.1614 2.29062C41.6453 2.69282 42.06 3.21716 42.3743 3.83261L42.5022 4.10117C42.8255 4.82765 43.0031 5.64064 43.0179 6.47226L41.0471 43.3902C40.9398 45.3991 39.7989 46.948 38.3372 47.6969C36.9705 48.397 35.3344 48.3966 33.969 47.4234L33.7005 47.2154L2.39578 21.1725C-0.378632 18.8641 0.447427 14.089 3.76492 12.7271L4.09305 12.606H4.09402L37.3645 1.71542L37.387 1.70859L37.4085 1.69882C37.9509 1.46277 38.5237 1.36712 39.0921 1.41464Z" stroke="#FA181C" stroke-opacity="0.97"/>
<path d="M23.4517 54.029L5.0095 10.5312C4.58794 9.53608 4.40242 8.41989 4.47343 7.3057C4.54443 6.19152 4.86919 5.12263 5.41189 4.21691C5.95459 3.31119 6.69415 2.60383 7.54901 2.17283C8.40386 1.74184 9.34081 1.60395 10.2565 1.77438L44.4345 8.13627C45.2214 8.28275 45.9682 8.65241 46.6136 9.21484C47.2589 9.77727 47.7843 10.5164 48.1467 11.3715C48.509 12.2266 48.6979 13.1732 48.6978 14.1334C48.6976 15.0937 48.5085 16.0402 48.146 16.8952L32.4015 54.0311C31.9787 55.0233 31.3373 55.8558 30.5477 56.4369C29.7581 57.0181 28.851 57.3255 27.926 57.3252C27.0011 57.325 26.094 57.0172 25.3047 56.4357C24.5153 55.8542 23.8741 55.0214 23.4517 54.029Z" fill="#1DACE3"/>
<path d="M9.86195 2.22195L10.1647 2.2659L44.3434 8.6282C44.9496 8.74113 45.5358 9.00485 46.0631 9.40945L46.2848 9.59207C46.7953 10.037 47.2284 10.6094 47.5534 11.2757L47.6862 11.5667C48.0214 12.3578 48.198 13.2376 48.1979 14.1331L48.1891 14.468C48.1562 15.1361 48.026 15.7904 47.8043 16.3997L47.6852 16.6995V16.7005L31.9411 53.8352C31.5497 54.7535 30.9619 55.5116 30.2516 56.0345C29.5426 56.5563 28.738 56.8256 27.9264 56.8255L27.6227 56.8128C27.0163 56.7624 26.4203 56.5612 25.8717 56.2171L25.6012 56.0335C24.9797 55.5756 24.4513 54.9379 24.067 54.1702L23.9118 53.8333L5.46938 10.3362H5.47035C5.1289 9.5302 4.95279 8.63442 4.95863 7.72684L4.97231 7.33719C5.0303 6.42781 5.26931 5.5554 5.66273 4.79324L5.84047 4.47391C6.27735 3.74479 6.84689 3.16537 7.49281 2.77469L7.77406 2.61942C8.43896 2.28419 9.15439 2.1499 9.86195 2.22195Z" stroke="#FA181C" stroke-opacity="0.97"/>
<path d="M43.4347 7.94943L26.3972 4.77795L5.47891 11.6281L13.8284 31.3283L33.3804 47.6002C33.8117 47.9551 34.2862 48.2271 34.7868 48.4062L42.2132 30.8905L43.4347 7.94943Z" fill="#3A68B8"/>
<path d="M42.9115 8.35999L41.7182 30.776L34.5219 47.7496C34.2354 47.6071 33.9594 47.4291 33.6996 47.2155H33.7006L14.2406 31.0211L6.15079 11.9332L26.433 5.2926L42.9115 8.35999Z" stroke="#FA181C" stroke-opacity="0.97"/>
<path d="M129.734 13.0336C129.734 12.2698 129.921 11.5232 130.273 10.8882C130.625 10.2531 131.125 9.75812 131.71 9.46583C132.295 9.17354 132.939 9.09707 133.56 9.24608C134.181 9.39509 134.752 9.76288 135.2 10.303C135.648 10.843 135.953 11.5311 136.076 12.2802C136.2 13.0293 136.136 13.8058 135.894 14.5115C135.652 15.2171 135.241 15.8202 134.715 16.2445C134.188 16.6689 133.569 16.8954 132.936 16.8954C132.089 16.885 131.28 16.4748 130.681 15.7528C130.082 15.0308 129.742 14.0546 129.734 13.0336ZM130.268 18.7831H135.605V40.2363H130.268V18.7831Z" fill="white"/>
<path d="M135.106 19.2832V39.7363H130.768V19.2832H135.106ZM131.934 9.91309C132.356 9.70215 132.81 9.6292 133.254 9.69531L133.444 9.73242C133.886 9.83856 134.309 10.0835 134.666 10.4551L134.815 10.6221C135.153 11.0301 135.402 11.5439 135.534 12.1143L135.582 12.3613C135.693 13.0301 135.636 13.7228 135.421 14.3486C135.233 14.8964 134.934 15.364 134.564 15.7129L134.401 15.8555C133.957 16.2128 133.448 16.394 132.938 16.3945C132.342 16.3861 131.751 16.1329 131.267 15.6533L131.066 15.4336C130.548 14.8091 130.242 13.9485 130.234 13.0332C130.234 12.4351 130.363 11.853 130.602 11.3438L130.71 11.1309C130.98 10.6437 131.343 10.2617 131.754 10.0117L131.934 9.91309Z" stroke="#FA181C" stroke-opacity="0.97"/>
<path d="M158.656 29.5099C158.718 30.9279 158.547 32.3467 158.153 33.6847C157.758 35.0227 157.149 36.2535 156.359 37.3064C155.568 38.3592 154.614 39.2132 153.549 39.8194C152.484 40.4255 151.331 40.7718 150.155 40.8384C149.165 40.9033 148.176 40.7021 147.26 40.2493C146.343 39.7965 145.521 39.1035 144.853 38.2204V48.8186H139.517V18.7833H144.853V20.7994C145.521 19.9167 146.343 19.224 147.26 18.7716C148.177 18.3192 149.165 18.1183 150.155 18.1835C151.331 18.2498 152.484 18.5958 153.549 19.2018C154.613 19.8077 155.568 20.6615 156.358 21.7142C157.148 22.7668 157.758 23.9975 158.152 25.3354C158.547 26.6733 158.718 28.092 158.656 29.5099ZM153.32 29.5099C153.299 28.5055 153.033 27.5308 152.555 26.7079C152.077 25.8849 151.408 25.2503 150.633 24.8834C149.857 24.5165 149.009 24.4336 148.195 24.6451C147.38 24.8566 146.636 25.3531 146.054 26.0725C145.472 26.7919 145.08 27.7021 144.925 28.6894C144.77 29.6766 144.86 30.697 145.184 31.6228C145.508 32.5486 146.051 33.3387 146.745 33.8942C147.439 34.4497 148.254 34.746 149.087 34.7459C149.659 34.777 150.23 34.6618 150.762 34.4078C151.295 34.1539 151.777 33.767 152.177 33.2725C152.576 32.778 152.885 32.1872 153.082 31.5387C153.279 30.8902 153.36 30.1988 153.32 29.5099Z" fill="white"/>
<path d="M150.122 18.6822H150.127C151.085 18.7363 152.031 18.9903 152.923 19.4342L153.302 19.6363C154.177 20.1348 154.979 20.8146 155.67 21.648L155.959 22.0143C156.617 22.8911 157.146 23.9015 157.521 25.0006L157.673 25.4771C158.051 26.761 158.216 28.1243 158.156 29.4879L158.155 29.5103L158.156 29.5318C158.208 30.7252 158.089 31.9183 157.805 33.0582L157.673 33.5435C157.294 34.8277 156.711 36.0042 155.959 37.0064C155.207 38.0085 154.302 38.8146 153.302 39.3844C152.426 39.8828 151.49 40.1922 150.536 40.3033L150.126 40.3394H150.122C149.335 40.3911 148.547 40.2581 147.799 39.9459L147.481 39.8014C146.64 39.3858 145.877 38.7448 145.253 37.9185L144.353 36.7291V48.3189H140.017V19.2828H144.353V22.2896L145.252 21.1012C145.798 20.3784 146.451 19.7983 147.17 19.3863L147.481 19.2203C148.217 18.8573 148.999 18.6722 149.785 18.6715L150.122 18.6822ZM150.846 24.4312C150.022 24.0413 149.12 23.9328 148.244 24.1197L148.069 24.1607C147.141 24.4018 146.307 24.9645 145.665 25.7584C145.024 26.5515 144.599 27.5452 144.431 28.6119C144.285 29.5457 144.341 30.5075 144.593 31.4068L144.712 31.7877C145.063 32.7927 145.658 33.6646 146.432 34.2848C147.209 34.906 148.132 35.2458 149.087 35.2457V35.2447C149.653 35.2715 150.216 35.1754 150.748 34.9605L150.977 34.859C151.507 34.6065 151.986 34.2411 152.394 33.7867L152.565 33.5865C152.953 33.1072 153.26 32.5506 153.474 31.9459L153.56 31.6842C153.748 31.0666 153.838 30.4148 153.829 29.7613L153.819 29.481C153.797 28.5387 153.575 27.6166 153.172 26.8014L152.987 26.4566C152.464 25.5562 151.723 24.8461 150.846 24.4312Z" stroke="#FA181C" stroke-opacity="0.97"/>
<path d="M175.127 33.7968C175.127 38.7318 171.569 40.8342 167.726 40.8342C166.174 41.0036 164.616 40.6074 163.252 39.6968C161.889 38.7863 160.783 37.4032 160.078 35.7266L164.703 32.553C164.89 33.328 165.293 34.0017 165.844 34.4614C166.394 34.921 167.059 35.1389 167.726 35.0784C169.007 35.0784 169.646 34.6049 169.646 33.7484C169.646 31.3871 160.895 32.633 160.895 25.2083C160.895 20.5322 164.167 18.173 167.875 18.173C169.266 18.1204 170.643 18.5184 171.863 19.3257C173.082 20.1329 174.101 21.3199 174.811 22.7629L170.258 25.7239C170.059 25.1608 169.727 24.6808 169.303 24.344C168.879 24.0072 168.382 23.8284 167.875 23.8299C166.95 23.8299 166.381 24.2508 166.381 25.0316C166.376 27.4938 175.127 25.8628 175.127 33.7968Z" fill="white"/>
<path d="M167.894 18.6723C169.094 18.6269 170.29 18.9459 171.371 19.6059L171.586 19.7426C172.614 20.423 173.498 21.3995 174.157 22.5922L170.473 24.9877C170.292 24.6573 170.066 24.3595 169.798 24.1108L169.615 23.9526C169.171 23.6004 168.652 23.386 168.108 23.3393L167.874 23.3295C167.345 23.3296 166.848 23.4492 166.472 23.7446C166.079 24.0535 165.881 24.507 165.881 25.0307C165.88 25.5141 166.105 25.8875 166.428 26.1674C166.734 26.432 167.142 26.6266 167.565 26.7905C167.992 26.956 168.49 27.1097 168.993 27.2709C169.504 27.4346 170.035 27.6105 170.563 27.8256C171.619 28.2565 172.627 28.8336 173.372 29.7436C174.11 30.6437 174.626 31.9125 174.626 33.7963C174.626 36.132 173.791 37.7453 172.547 38.7827C171.29 39.8314 169.563 40.3343 167.727 40.3344H167.7L167.672 40.3373C166.332 40.4836 164.981 40.173 163.77 39.434L163.53 39.2807C162.356 38.4971 161.376 37.3304 160.704 35.9028L164.437 33.3412C164.642 33.8314 164.93 34.2728 165.291 34.6332L165.524 34.8452C166.162 35.3783 166.947 35.6441 167.749 35.5776C168.428 35.5748 169.019 35.4498 169.454 35.143C169.923 34.8125 170.146 34.3184 170.146 33.7485C170.146 33.2714 169.914 32.9039 169.596 32.6293C169.293 32.3678 168.889 32.1691 168.466 31.9985C168.039 31.8259 167.541 31.6628 167.036 31.4926C166.525 31.3201 165.993 31.1361 165.463 30.9155C164.402 30.4731 163.39 29.8969 162.643 29.019C161.906 28.153 161.395 26.9564 161.395 25.2084C161.395 22.9948 162.165 21.3755 163.332 20.3061C164.506 19.2301 166.124 18.6734 167.874 18.6733H167.884L167.894 18.6723Z" stroke="#FA181C" stroke-opacity="0.97"/>
<path d="M194.629 18.7829V40.2361H189.293V38.2158C188.677 39.1058 187.895 39.807 187.01 40.262C186.126 40.7171 185.165 40.913 184.205 40.8338C180.612 40.8338 177.554 37.7444 177.554 31.9507V18.7829H182.89V31.0121C182.845 31.5234 182.893 32.0404 183.03 32.5271C183.168 33.0137 183.392 33.4583 183.687 33.8299C183.981 34.2015 184.34 34.4912 184.737 34.6788C185.133 34.8663 185.56 34.9473 185.985 34.9159C187.941 34.9159 189.3 33.5438 189.3 30.4965V18.7829H194.629Z" fill="white"/>
<path d="M182.39 19.2829V30.9987C182.35 31.4882 182.385 31.9824 182.496 32.4567L182.55 32.6628C182.685 33.1405 182.895 33.5873 183.172 33.9772L183.295 34.1403C183.591 34.5138 183.948 34.8213 184.349 35.0417L184.523 35.1306C184.992 35.3518 185.498 35.4498 186.008 35.4147C187.102 35.4094 188.076 35.0168 188.766 34.1628C189.447 33.3183 189.801 32.0858 189.801 30.4968V19.2829H194.13V39.736H189.794V36.6159L188.883 37.9313C188.38 38.6564 187.764 39.2391 187.079 39.6511L186.781 39.8171C185.977 40.2308 185.109 40.4069 184.246 40.3356L184.225 40.3337H184.205C182.561 40.3336 181.041 39.6307 179.921 38.2497C178.796 36.8628 178.054 34.7626 178.054 31.9509V19.2829H182.39Z" stroke="#FA181C" stroke-opacity="0.97"/>
<path d="M225.215 27.0617V40.2358H219.879V27.6215C219.879 25.477 219.024 24.1027 217.317 24.1027C215.538 24.1027 214.543 25.6054 214.543 28.1371V40.2358H209.205V27.6215C209.205 25.477 208.352 24.1027 206.644 24.1027C204.866 24.1027 203.869 25.6054 203.869 28.1371V40.2358H198.533V18.7826H203.878V20.7482C204.431 19.8729 205.157 19.1788 205.99 18.7292C206.823 18.2796 207.735 18.0888 208.645 18.1744C209.558 18.1205 210.468 18.3529 211.285 18.849C212.101 19.345 212.798 20.0878 213.306 21.0049C213.897 20.0454 214.681 19.2824 215.583 18.7873C216.485 18.2923 217.477 18.0814 218.466 18.1744C222.549 18.1828 225.215 21.6994 225.215 27.0617Z" fill="white"/>
<path d="M218.419 18.6725L218.441 18.6745H218.465C220.347 18.6784 221.889 19.484 222.974 20.9128C224.067 22.3537 224.715 24.4576 224.715 27.0612V39.736H220.379V27.6217C220.379 26.4945 220.156 25.4994 219.648 24.7721C219.123 24.0197 218.325 23.6032 217.317 23.6032C216.264 23.6032 215.415 24.0586 214.85 24.8893C214.301 25.6955 214.043 26.8169 214.043 28.1374V39.736H209.705V27.6217C209.705 26.4945 209.482 25.4995 208.975 24.7721C208.449 24.0195 207.652 23.6032 206.643 23.6032C205.591 23.6032 204.742 24.0588 204.177 24.8893C203.628 25.6955 203.369 26.8168 203.369 28.1374V39.736H199.033V19.2829H203.378V22.4753L204.301 21.0153C204.748 20.3069 205.313 19.735 205.95 19.3317L206.227 19.1696C206.977 18.7652 207.791 18.5966 208.599 18.6725L208.637 18.6754L208.675 18.6735C209.381 18.6319 210.088 18.7837 210.746 19.1208L211.025 19.276C211.761 19.7225 212.398 20.3984 212.868 21.2467L213.283 21.9948L213.731 21.2672C214.213 20.4857 214.827 19.853 215.521 19.4059L215.823 19.2253C216.641 18.7764 217.534 18.5893 218.419 18.6725Z" stroke="#FA181C" stroke-opacity="0.97"/>
<path d="M229.736 18.6503C231.924 18.6503 233.697 16.5114 233.697 13.8731C233.697 11.2347 231.924 9.09586 229.736 9.09586C227.548 9.09586 225.775 11.2347 225.775 13.8731C225.775 16.5114 227.548 18.6503 229.736 18.6503Z" fill="white"/>
<path d="M229.736 9.59586C231.564 9.59586 233.197 11.4192 233.197 13.8732C233.197 16.3271 231.564 18.1505 229.736 18.1505C227.908 18.1505 226.275 16.3271 226.275 13.8732C226.275 11.4192 227.908 9.5959 229.736 9.59586Z" stroke="#FA181C" stroke-opacity="0.97"/>
<path d="M56.8795 8.91498H62.2172V40.2362H56.8795V8.91498ZM65.2394 29.5096C65.2336 27.2604 65.7812 25.0597 66.813 23.1862C67.8448 21.3127 69.3143 19.8505 71.0356 18.9849C72.7568 18.1192 74.6523 17.8891 76.4821 18.3235C78.3118 18.758 79.9936 19.8375 81.3143 21.4254C82.6351 23.0133 83.5354 25.0381 83.9014 27.2435C84.2674 29.449 84.0826 31.7358 83.3703 33.8144C82.658 35.893 81.4503 37.67 79.9001 38.9203C78.3499 40.1706 76.527 40.8381 74.6621 40.8381C73.4235 40.854 72.1947 40.5722 71.0474 40.009C69.9002 39.4458 68.8575 38.6125 67.9803 37.5578C67.103 36.5032 66.4088 35.2483 65.9382 33.8664C65.4676 32.4845 65.2301 31.0034 65.2394 29.5096ZM78.7592 29.5096C78.7382 28.5394 78.4806 27.5982 78.0184 26.8037C77.5563 26.0092 76.9101 25.3966 76.1608 25.0427C75.4115 24.6888 74.5924 24.6092 73.8058 24.8139C73.0192 25.0186 72.3 25.4984 71.7384 26.1934C71.1767 26.8884 70.7975 27.7678 70.648 28.7214C70.4986 29.675 70.5856 30.6607 70.8982 31.555C71.2107 32.4493 71.735 33.2126 72.4054 33.7494C73.0758 34.2862 73.8626 34.5727 74.6673 34.573C75.2183 34.5919 75.7667 34.473 76.2777 34.2236C76.7887 33.9743 77.2513 33.5999 77.6364 33.1242C78.0215 32.6485 78.3207 32.0817 78.5152 31.4596C78.7096 30.8375 78.7951 30.1735 78.7661 29.5096H78.7592ZM105.368 18.7766V39.1587C105.368 46.3666 100.707 49.4118 95.9764 49.4118C94.3113 49.5634 92.6437 49.1591 91.1564 48.2433C89.6691 47.3275 88.4196 45.9355 87.5449 44.22L92.0974 41.0443C92.4649 41.9397 93.0503 42.6784 93.7753 43.1617C94.5003 43.6449 95.3303 43.8497 96.1544 43.7486C96.6804 43.8352 97.2158 43.7783 97.7211 43.582C98.2264 43.3857 98.6887 43.0551 99.0739 42.6146C99.4591 42.1741 99.7574 41.6348 99.9467 41.0367C100.136 40.4385 100.212 39.7967 100.168 39.1587V37.1847C99.5427 38.1066 98.7472 38.839 97.8451 39.3232C96.943 39.8075 95.9594 40.03 94.9731 39.9731C92.6252 39.8851 90.3978 38.6984 88.7628 36.6642C87.1277 34.63 86.2134 31.9081 86.2134 29.075C86.2134 26.2419 87.1277 23.52 88.7628 21.4858C90.3978 19.4516 92.6252 18.2649 94.9731 18.1769C95.9594 18.1199 96.943 18.3425 97.8451 18.8268C98.7472 19.311 99.5427 20.0434 100.168 20.9653V18.7766H105.368ZM100.175 29.0739C100.21 28.0378 99.9873 27.0126 99.5355 26.1302C99.0837 25.2478 98.4234 24.5486 97.6395 24.1225C96.8556 23.6963 95.9839 23.5627 95.1365 23.7388C94.2892 23.9149 93.5048 24.3926 92.8844 25.1106C92.2639 25.8286 91.8357 26.754 91.6548 27.7678C91.4739 28.7817 91.5486 29.8376 91.8693 30.7998C92.1899 31.7621 92.7419 32.5866 93.4542 33.1675C94.1665 33.7484 95.0066 34.059 95.8665 34.0595C96.4271 34.107 96.9898 34.0125 97.5184 33.782C98.0469 33.5515 98.5296 33.1902 98.9354 32.7212C99.3412 32.2522 99.6611 31.686 99.8745 31.0589C100.088 30.4318 100.19 29.7578 100.175 29.0802V29.0739ZM108.39 29.4948C108.384 27.2457 108.932 25.045 109.963 23.1715C110.995 21.2979 112.465 19.8358 114.186 18.9701C115.907 18.1045 117.803 17.8744 119.633 18.3088C121.462 18.7432 123.144 19.8228 124.465 21.4106C125.786 22.9985 126.686 25.0234 127.052 27.2288C127.418 29.4342 127.233 31.721 126.521 33.7997C125.808 35.8783 124.601 37.6553 123.051 38.9056C121.5 40.1559 119.677 40.8233 117.813 40.8233C116.575 40.8393 115.347 40.5579 114.201 39.9956C113.054 39.4333 112.012 38.6014 111.135 37.5483C110.258 36.4952 109.564 35.242 109.092 33.8619C108.621 32.4817 108.382 31.0022 108.39 29.5096V29.4948ZM121.91 29.4948C121.889 28.524 121.632 27.5821 121.169 26.7869C120.707 25.9918 120.061 25.3787 119.311 25.0243C118.561 24.67 117.742 24.5902 116.954 24.7949C116.167 24.9996 115.448 25.4797 114.886 26.1751C114.324 26.8706 113.944 27.7505 113.795 28.7047C113.645 29.659 113.733 30.6452 114.046 31.5399C114.358 32.4347 114.883 33.1983 115.554 33.7352C116.225 34.272 117.013 34.5583 117.818 34.5583C118.367 34.5759 118.914 34.4564 119.423 34.2075C119.932 33.9585 120.393 33.5853 120.778 33.1113C121.162 32.6373 121.461 32.0728 121.655 31.453C121.85 30.8332 121.937 30.1716 121.91 29.5096V29.4948Z" fill="white"/>
<path d="M95.0015 18.6757C95.8922 18.6243 96.7851 18.8253 97.6089 19.2675C98.4336 19.7102 99.1698 20.3852 99.7535 21.246L100.668 22.5937V19.2763H104.868V39.1591C104.868 42.6494 103.743 45.0724 102.102 46.6249C100.455 48.184 98.2376 48.912 95.9761 48.912H95.9537L95.9312 48.914C94.4758 49.0465 93.0135 48.7244 91.6832 47.9736L91.4185 47.8173C90.1277 47.0224 89.0176 45.8394 88.1959 44.374L91.9019 41.789C92.2682 42.4646 92.7577 43.0436 93.3472 43.4726L93.4976 43.5781C94.2969 44.1109 95.2201 44.3478 96.1461 44.2509C96.6614 44.3246 97.182 44.2828 97.6802 44.1259L97.9019 44.0478C98.415 43.8485 98.883 43.5324 99.2828 43.124L99.4507 42.9433C99.8301 42.5093 100.131 41.9948 100.339 41.4316L100.423 41.1874C100.631 40.5325 100.714 39.8326 100.668 39.1376V35.5566L99.7535 36.9042C99.2427 37.6575 98.6151 38.2685 97.9136 38.706L97.6089 38.8828C96.888 39.2698 96.1143 39.4715 95.3355 39.4814L95.0015 39.4736H94.9918C92.8058 39.3916 90.7084 38.2858 89.1529 36.3505C87.5955 34.413 86.7135 31.8047 86.7134 29.0751C86.7134 26.3455 87.5955 23.7364 89.1529 21.7988C90.6113 19.9846 92.5461 18.8999 94.5836 18.704L94.9918 18.6767L95.0015 18.6757ZM71.2603 19.4316C72.7779 18.6684 74.4328 18.4328 76.0445 18.7411L76.3668 18.8105C77.9736 19.1921 79.4719 20.1078 80.69 21.4677L80.9302 21.7451C82.1108 23.1644 82.9461 24.9589 83.3365 26.9286L83.4078 27.3251C83.7604 29.4503 83.582 31.6534 82.897 33.6523C82.2549 35.5262 81.1982 37.1327 79.858 38.3027L79.5865 38.5312C78.2106 39.6409 76.6182 40.2581 74.9888 40.331L74.6617 40.3378H74.6558C73.6429 40.3509 72.6345 40.1512 71.6754 39.746L71.2681 39.5605C70.3235 39.0968 69.4488 38.4354 68.6851 37.6044L68.3648 37.2382C67.5291 36.2335 66.8639 35.0328 66.4117 33.705C66.0161 32.5433 65.7916 31.3068 65.7476 30.0517L65.7398 29.5126V29.5087C65.7341 27.34 66.2619 25.223 67.2505 23.4277C68.2392 21.6324 69.6391 20.2469 71.2603 19.4316ZM61.7173 9.41498V39.7363H57.3795V9.41498H61.7173ZM76.3746 24.5908C75.5217 24.1879 74.5825 24.0953 73.6802 24.33C72.8923 24.535 72.1749 24.9784 71.5914 25.6015L71.3492 25.8788C70.8056 26.5515 70.422 27.3728 70.2261 28.2597L70.1539 28.6445C70.0123 29.5485 70.0665 30.4798 70.3101 31.3505L70.4263 31.7197C70.7241 32.5716 71.2018 33.3253 71.8199 33.9033L72.0933 34.1396C72.8459 34.7421 73.7415 35.0728 74.6675 35.0732V35.0722C75.2178 35.0886 75.7631 34.9866 76.2769 34.7724L76.4966 34.6728C77.0782 34.389 77.5975 33.9665 78.025 33.4384C78.3989 32.9765 78.6971 32.4414 78.9078 31.8603L78.9927 31.6083C79.2046 30.9301 79.2965 30.2085 79.2652 29.4882L79.2447 29.0097H79.2281C79.1548 28.2627 78.9537 27.5386 78.6304 26.8857L78.4507 26.5527C78.0069 25.7897 77.4013 25.1676 76.6871 24.7548L76.3746 24.5908ZM119.525 24.5722C118.725 24.1941 117.849 24.0887 116.999 24.2704L116.829 24.3115C116.04 24.5165 115.323 24.9595 114.739 25.5829L114.497 25.8613C113.953 26.5343 113.569 27.3558 113.374 28.2431L113.301 28.6269C113.16 29.5318 113.213 30.4644 113.458 31.3359L113.574 31.705C113.872 32.5571 114.35 33.3106 114.968 33.8886L115.242 34.1259C115.995 34.7286 116.891 35.0586 117.818 35.0585V35.0576C118.367 35.0728 118.91 34.9698 119.422 34.7558L119.642 34.6562C120.222 34.3728 120.739 33.9519 121.166 33.4257C121.539 32.9654 121.837 32.4325 122.047 31.8535L122.132 31.6025C122.343 30.9331 122.436 30.2212 122.409 29.5097H122.41V29.4843C122.39 28.5651 122.174 27.6652 121.781 26.8701L121.601 26.5361C121.157 25.7724 120.552 25.1494 119.837 24.7363L119.525 24.5722ZM97.8785 23.6835C97.0494 23.2328 96.1255 23.0689 95.2164 23.2158L95.0347 23.249C94.1901 23.4245 93.4121 23.8608 92.772 24.498L92.5064 24.7841C91.8223 25.5758 91.358 26.5853 91.1627 27.6796C90.9673 28.7743 91.0476 29.9153 91.3951 30.9579C91.6991 31.8703 92.1985 32.6793 92.8502 33.3007L93.1382 33.5546C93.9306 34.2008 94.8771 34.5558 95.857 34.5585C96.4108 34.6008 96.9641 34.5243 97.4898 34.332L97.7183 34.2402C98.2451 34.0104 98.7261 33.6691 99.1402 33.2382L99.313 33.0488C99.7638 32.5278 100.115 31.9035 100.348 31.2197C100.579 30.5427 100.689 29.8181 100.674 29.0908C100.708 28.1133 100.528 27.1414 100.153 26.2695L99.98 25.9023C99.5184 25.0007 98.8502 24.2604 98.0416 23.7763L97.8785 23.6835ZM108.89 29.4931C108.885 27.4599 109.349 25.4726 110.221 23.7529L110.401 23.413C111.39 21.6178 112.79 20.2322 114.411 19.4169C115.928 18.6537 117.583 18.4181 119.195 18.7265L119.517 18.7949C121.124 19.1764 122.622 20.0924 123.84 21.4521L124.081 21.7304C125.261 23.1498 126.096 24.9442 126.487 26.914L126.558 27.3105C126.911 29.4357 126.732 31.6388 126.047 33.6376C125.405 35.5116 124.349 37.1181 123.008 38.288L122.737 38.5165C121.361 39.6263 119.769 40.2435 118.139 40.3163L117.812 40.3232H117.806C116.65 40.3381 115.499 40.0757 114.42 39.5468C113.477 39.0839 112.603 38.4242 111.839 37.5947L111.519 37.2285C110.684 36.2252 110.018 35.0262 109.565 33.7001C109.169 32.5399 108.943 31.3047 108.898 30.0507L108.89 29.5126V29.4931Z" stroke="#FA181C" stroke-opacity="0.97"/>
</svg>
