<svg width="170" height="58" viewBox="0 0 170 58" fill="none" xmlns="http://www.w3.org/2000/svg">
<path fill-rule="evenodd" clip-rule="evenodd" d="M84.251 7.05683C85.8788 5.09381 88.5178 5.09381 90.1456 7.05683C91.7733 9.02 91.7733 12.2028 90.1456 14.166L80.2218 26.1347C77.3726 21.5294 77.6821 14.9795 81.1503 10.7966L84.251 7.05683Z" fill="#4F9E91"/>
<path d="M87.1985 6.08456C88.0485 6.08464 88.9185 6.44988 89.6224 7.21738L89.761 7.37558C91.1893 9.09814 91.2339 11.8882 89.8948 13.6773L89.761 13.8473L80.2972 25.2603C78.0182 21.018 78.3361 15.3317 81.2327 11.4986L81.5355 11.1158L84.636 7.37558C85.3624 6.49984 86.2921 6.08456 87.1985 6.08456Z" stroke="#FA181C" stroke-opacity="0.97"/>
<path fill-rule="evenodd" clip-rule="evenodd" d="M98.4378 34.0601C100.066 36.0231 100.066 39.2061 98.4378 41.1691C96.811 43.1323 94.1715 43.1323 92.5437 41.1691L82.6199 29.2005C86.4384 25.7642 91.8692 26.1374 95.3375 30.3203L98.4378 34.0601Z" fill="#EBE1C5"/>
<path d="M83.3192 29.2606C86.7778 26.4522 91.4555 26.7758 94.6385 30.2781L94.9529 30.6395L98.0526 34.3787V34.3797C99.4808 36.1019 99.526 38.8905 98.1873 40.6795L98.0526 40.8504C97.3268 41.7261 96.3975 42.1414 95.491 42.1414C94.6411 42.1414 93.7711 41.7761 93.0672 41.0086L92.9285 40.8504L83.3192 29.2606Z" stroke="#FA181C" stroke-opacity="0.97"/>
<path fill-rule="evenodd" clip-rule="evenodd" d="M76.0482 51.1709C74.4205 53.134 71.7814 53.134 70.1538 51.1709C68.526 49.2077 68.526 46.0249 70.1538 44.0617L80.0774 32.0931C82.9267 36.6985 82.6172 43.2483 79.149 47.4311L76.0482 51.1709Z" fill="#EBCC6E"/>
<path d="M80.0013 32.9672C82.2807 37.2097 81.9638 42.8967 79.0667 46.7299L78.764 47.1117L75.6634 50.8519C74.9371 51.7279 74.0075 52.1429 73.1009 52.1429C72.2509 52.1429 71.381 51.7778 70.6771 51.0101L70.5384 50.8519C69.1103 49.1295 69.0659 46.3403 70.4046 44.5511L70.5384 44.3812L80.0013 32.9672Z" stroke="#FA181C" stroke-opacity="0.97"/>
<path fill-rule="evenodd" clip-rule="evenodd" d="M61.8613 24.1667C60.2335 22.2036 60.2335 19.0207 61.8613 17.0576C63.489 15.0944 66.128 15.0944 67.7558 17.0576L77.6796 29.0263C73.8611 32.4626 68.4302 32.0893 64.9621 27.9065L61.8613 24.1667Z" fill="#ED834E"/>
<path d="M64.8084 16.0852C65.6583 16.0852 66.5283 16.4505 67.2323 17.218L67.3709 17.3772L76.9793 28.9651C73.5208 31.7732 68.8438 31.4513 65.661 27.9495L65.3465 27.5872L62.2459 23.8479C60.8178 22.1255 60.7735 19.3363 62.1121 17.5471L62.2459 17.3772C62.9722 16.5012 63.9019 16.0852 64.8084 16.0852Z" stroke="#FA181C" stroke-opacity="0.97"/>
<path fill-rule="evenodd" clip-rule="evenodd" d="M82.0334 49.7049C84.4335 46.4864 85.549 42.3681 85.3798 38.3133L90.1458 44.0614C90.1576 44.0757 90.1696 44.0899 90.1815 44.1042V48.208C90.1815 50.9842 88.3154 53.2348 86.0135 53.2348C84.1438 53.2348 82.5617 51.7501 82.0334 49.7049Z" fill="#ED834E"/>
<path d="M89.6818 44.285V48.2079C89.6818 50.7996 87.9559 52.735 86.0139 52.7352C84.4941 52.7352 83.1195 51.565 82.5812 49.7987C84.6798 46.8898 85.7785 43.3121 85.8869 39.7079L89.6818 44.285Z" stroke="#FA181C" stroke-opacity="0.97"/>
<path fill-rule="evenodd" clip-rule="evenodd" d="M63.0767 31.3854C65.7452 34.2803 69.1599 35.6257 72.5219 35.4215L67.756 41.1696C67.744 41.1839 67.7322 41.1983 67.7205 41.2126H64.3179C62.0159 41.2127 60.1499 38.962 60.1499 36.1857C60.1499 33.9308 61.3809 32.0226 63.0767 31.3854Z" fill="#4F9E91"/>
<path d="M62.9545 31.9841C65.3878 34.4999 68.3986 35.8245 71.4477 35.9333L67.4858 40.7126H64.3178L64.1362 40.7067C62.2694 40.5907 60.6499 38.696 60.6499 36.1852C60.65 34.2404 61.6374 32.6396 62.9545 31.9841Z" stroke="#FA181C" stroke-opacity="0.97"/>
<path fill-rule="evenodd" clip-rule="evenodd" d="M97.2225 26.8426C94.5543 23.9478 91.1397 22.6024 87.7776 22.8064L92.5435 17.0585C92.5555 17.0442 92.5672 17.0298 92.579 17.0154H95.9817C98.284 17.0154 100.15 19.2661 100.15 22.0424C100.15 24.2974 98.9186 26.2055 97.2225 26.8426Z" fill="#EBCC6E"/>
<path d="M95.9818 17.5154C97.9243 17.5154 99.6497 19.4508 99.6497 22.0427C99.6496 23.9881 98.661 25.5876 97.3431 26.2429C94.91 23.7277 91.8997 22.4023 88.8509 22.2937L92.8138 17.5154H95.9818Z" stroke="#FA181C" stroke-opacity="0.97"/>
<path fill-rule="evenodd" clip-rule="evenodd" d="M78.2662 8.52266C75.8659 11.741 74.7505 15.8593 74.9196 19.9142L70.1538 14.1662C70.1418 14.1519 70.13 14.1376 70.118 14.1233V10.0196C70.118 7.24331 71.9841 4.99255 74.286 4.99255C76.1558 4.99255 77.7379 6.47745 78.2662 8.52266Z" fill="#EBE1C5"/>
<path d="M74.286 5.49255C75.8051 5.49255 77.178 6.66188 77.7166 8.42712C75.6179 11.3358 74.5205 14.9147 74.412 18.5189L70.618 13.9418V10.0199C70.618 7.428 72.3438 5.49259 74.286 5.49255Z" stroke="#FA181C" stroke-opacity="0.97"/>
<path fill-rule="evenodd" clip-rule="evenodd" d="M74.2862 0.902924C70.1114 0.902924 66.727 4.98472 66.727 10.0198V11.793C64.2153 11.0015 61.4318 11.7926 59.4635 14.1664C56.5114 17.7268 56.5114 23.4993 59.4635 27.0597L60.5031 28.3134C58.2631 29.8958 56.7587 32.8289 56.7587 36.1859C56.7587 41.221 60.1431 45.3028 64.3179 45.3028H65.788C65.1318 48.332 65.7877 51.6891 67.7559 54.0628C70.708 57.6232 75.4943 57.6232 78.4463 54.0628L81.547 50.3232C84.2823 47.0242 85.5599 42.6328 85.3796 38.3134L90.1457 44.0615C93.0978 47.6219 97.8841 47.6219 100.836 44.0615C103.789 40.5011 103.789 34.7286 100.836 31.1684L99.7971 29.9147C102.036 28.3324 103.541 25.3992 103.541 22.0423C103.541 17.0072 100.156 12.9254 95.9817 12.9254H94.5115C95.1678 9.89604 94.5118 6.53893 92.5436 4.16511C89.5916 0.604726 84.8053 0.604726 81.8533 4.16511L78.7525 7.90486C76.0172 11.2038 74.7396 15.5951 74.9199 19.9144L70.1539 14.1664C70.142 14.1521 70.1301 14.1378 70.1182 14.1235V10.0198C70.1182 7.24354 71.9842 4.99293 74.2862 4.99293C76.1559 4.99293 77.738 6.47768 78.2663 8.52289C78.4229 8.31297 78.5849 8.10687 78.7524 7.90486L80.8136 5.41886C79.5016 2.71728 77.0696 0.902924 74.2862 0.902924ZM92.5791 17.0154C92.5673 17.0297 92.5555 17.0441 92.5436 17.0584L87.7777 22.8063C91.1398 22.6023 94.5544 23.9476 97.2226 26.8425C98.9186 26.2054 100.15 24.2971 100.15 22.0423C100.15 19.266 98.2841 17.0154 95.9817 17.0154H92.5791ZM67.7203 41.2128C67.7321 41.1984 67.744 41.1839 67.7559 41.1696L72.5218 35.4216C69.1598 35.6257 65.7452 34.2803 63.0768 31.3856C61.381 32.0228 60.1498 33.9309 60.1498 36.1859C60.1498 38.9622 62.016 41.2128 64.3179 41.2128H67.7203ZM62.9468 31.2428C62.8174 31.0986 62.6899 30.9508 62.5643 30.7993V30.7994C62.6899 30.9509 62.8174 31.0986 62.9468 31.2428ZM86.0134 57.3253C83.2299 57.3253 80.7979 55.5108 79.4859 52.8092L81.547 50.3232C81.7146 50.1212 81.8766 49.9151 82.0332 49.7051C82.5615 51.7504 84.1436 53.2352 86.0134 53.2352C88.3154 53.2352 90.1814 50.9846 90.1814 48.2084V44.1046C91.1582 45.2673 92.3323 46.0442 93.5727 46.435V48.2084C93.5727 53.2435 90.1883 57.3253 86.0134 57.3253ZM90.1457 7.0571C88.5179 5.09407 85.8789 5.09407 84.2511 7.0571L81.1503 10.7968C77.6822 14.9798 77.3727 21.5296 80.2219 26.135L90.1457 14.1663C91.7734 12.2031 91.7734 9.02027 90.1457 7.0571ZM98.4377 41.1695C100.066 39.2063 100.066 36.0235 98.4377 34.0603L95.3373 30.3206C91.8691 26.1378 86.4383 25.7645 82.6198 29.2008L92.5436 41.1695C94.1713 43.1327 96.8109 43.1327 98.4377 41.1695ZM76.0483 51.1708C74.4206 53.134 71.7816 53.134 70.1538 51.1708C68.5262 49.2076 68.5262 46.0248 70.1538 44.0616L80.0776 32.0929C82.9268 36.6983 82.6173 43.2482 79.1491 47.431L76.0483 51.1708ZM61.8614 17.0584C60.2338 19.0216 60.2338 22.2044 61.8614 24.1676L64.9622 27.9073C68.4305 32.0901 73.8612 32.4634 77.6797 29.0271L67.7559 17.0584C66.1282 15.0954 63.4892 15.0954 61.8614 17.0584Z" fill="#3D3A2C"/>
<path d="M90.6815 45.3355C90.698 45.3501 90.7149 45.3641 90.7314 45.3785C90.9194 45.543 91.1123 45.6966 91.3095 45.8394C91.3432 45.8639 91.3771 45.8879 91.411 45.9117C91.4931 45.9692 91.5757 46.0249 91.6591 46.0787C91.6781 46.0909 91.6967 46.1038 91.7157 46.1158C91.8217 46.1828 91.929 46.2462 92.037 46.3072C92.0571 46.3186 92.0774 46.3293 92.0976 46.3404C92.315 46.4607 92.5362 46.5686 92.7607 46.6646C92.7837 46.6745 92.8068 46.6843 92.83 46.6939C92.9107 46.7275 92.9917 46.7592 93.0732 46.7896V48.2086C93.0731 53.0591 89.8285 56.8247 86.0136 56.8248C83.5586 56.8248 81.3548 55.283 80.08 52.8746L81.8593 50.7281C82.6183 52.4781 84.1602 53.735 86.0136 53.735C88.6751 53.7349 90.6814 51.1691 90.6815 48.2086V45.3355ZM74.286 1.40292C76.7405 1.40292 78.9437 2.9445 80.2187 5.35214L78.4384 7.49863C77.6791 5.74963 76.1386 4.49277 74.286 4.49277C71.6244 4.49286 69.6181 7.05952 69.6181 10.0201V14.3053L69.7353 14.4449C69.7407 14.4514 69.746 14.4584 69.7519 14.4654C69.7577 14.4724 69.764 14.4803 69.7704 14.4879V14.4869L74.5351 20.234L75.4814 21.3746L75.4198 19.8932C75.2506 15.8371 76.401 11.7326 78.8485 8.58456C78.8652 8.56313 78.8816 8.54146 78.8983 8.52011L79.1376 8.22421L82.2382 4.48398C83.6266 2.80957 85.4239 1.99481 87.1982 1.99472C88.8616 1.99472 90.5455 2.71098 91.8935 4.18027L92.1591 4.48398C94.0172 6.72503 94.6504 9.92119 94.0224 12.8199L93.8915 13.4254H95.9814C99.796 13.4254 103.041 17.1919 103.041 22.0426C103.041 25.2567 101.6 28.0286 99.5087 29.5064L99.0673 29.818L99.412 30.234L100.451 31.4879C103.162 34.7574 103.247 40.0248 100.706 43.4195L100.451 43.7428C99.0626 45.4171 97.2654 46.232 95.4911 46.232C94.4761 46.232 93.454 45.9641 92.5048 45.4225C92.3223 45.3183 92.1423 45.2043 91.9657 45.0797C91.9477 45.0669 91.93 45.0536 91.912 45.0406C91.8233 44.9767 91.7344 44.9115 91.6474 44.8424C91.6383 44.8352 91.63 44.8271 91.621 44.8199C91.5464 44.76 91.4725 44.6982 91.3993 44.6344C91.3683 44.6073 91.3373 44.5801 91.3065 44.5523C91.2319 44.485 91.1579 44.4158 91.0849 44.3443C91.0668 44.3267 91.0491 44.3085 91.0312 44.2906C90.9604 44.2199 90.8903 44.1475 90.8212 44.0728C90.7236 43.9675 90.6271 43.8589 90.5331 43.7457L90.4892 43.693L85.7646 37.9947L84.8183 36.8531L84.8798 38.3346C85.0482 42.3707 83.909 46.4544 81.4862 49.5963C81.4577 49.6332 81.4301 49.6709 81.4013 49.7076L81.162 50.0035V50.0045L79.1005 52.4898L78.8964 52.7369L78.0614 53.7437C76.673 55.4182 74.8758 56.2329 73.1015 56.233C71.4379 56.233 69.7542 55.5168 68.4062 54.0475L68.1405 53.7437C66.2825 51.5029 65.6484 48.3073 66.2763 45.4088L66.4081 44.8023H64.3183C60.5032 44.8023 57.2588 41.0367 57.2587 36.1861C57.2587 32.9718 58.6999 30.2001 60.7919 28.7223L61.2323 28.4098L60.8876 27.9947L59.8485 26.7408C57.1374 23.471 57.0528 18.2029 59.5946 14.8082L59.8485 14.4859C61.6967 12.257 64.2733 11.5441 66.5771 12.2701L67.2265 12.4752V10.0201C67.2265 5.16945 70.471 1.40302 74.286 1.40292ZM79.6923 31.774L69.7685 43.7428C68.0433 45.8239 67.9898 49.1274 69.6073 51.2848L69.7685 51.4898C70.6699 52.577 71.8746 53.1432 73.1015 53.1432C74.2514 53.143 75.3813 52.6458 76.2607 51.6881L76.4335 51.4898L79.5341 47.7506C83.1458 43.3946 83.4595 36.6087 80.5028 31.8297L80.1366 31.2379L79.6923 31.774ZM95.7226 30.0016C92.0788 25.6069 86.3213 25.1965 82.2851 28.8287L81.9286 29.15L82.2353 29.5201L92.1591 41.4889C93.0605 42.5758 94.2644 43.1422 95.4911 43.1422C96.7179 43.1421 97.9222 42.5761 98.8232 41.4889L98.8222 41.4879C100.603 39.3396 100.604 35.889 98.8222 33.7408H98.8232L95.7226 30.0016ZM62.0644 30.9801L62.1796 31.1187C62.2076 31.1526 62.2373 31.1849 62.2655 31.2184C60.6881 32.1302 59.6493 34.0417 59.6493 36.1861C59.6494 39.1467 61.6567 41.7125 64.3183 41.7125H67.9569L68.1064 41.5299L68.1396 41.4908L68.1405 41.4889L72.9071 35.7408L73.6435 34.8521L72.4911 34.9225C69.2891 35.1168 66.0177 33.8381 63.4442 31.0465L63.3173 30.9098L63.3192 30.9088C63.1943 30.7696 63.0706 30.6266 62.9491 30.4801L62.0644 29.4127V30.9801ZM64.8085 15.0865C63.6585 15.0866 62.5288 15.5838 61.6493 16.5416L61.4765 16.7389C59.751 18.82 59.6968 22.1243 61.3144 24.2818L61.4765 24.4869L64.5771 28.2262C68.221 32.6208 73.9783 33.0313 78.0146 29.399L78.371 29.0777L78.0644 28.7076L68.1405 16.7389C67.2392 15.652 66.0352 15.0865 64.8085 15.0865ZM92.1942 16.6959L92.1601 16.7369L92.1591 16.7389L87.3925 22.4869L86.6562 23.3756L87.8075 23.3053C91.0098 23.111 94.2821 24.3893 96.8554 27.1812L97.0829 27.4293L97.3983 27.3102C99.3264 26.5858 100.65 24.463 100.65 22.0426C100.65 19.0819 98.6435 16.5152 95.9814 16.5152H92.3446L92.1942 16.6959ZM87.1982 5.08456C86.0481 5.08464 84.9184 5.58272 84.039 6.54062L83.8661 6.73788L80.7655 10.4781C77.1539 14.8342 76.8401 21.6191 79.7968 26.398L80.163 26.9898L80.6064 26.4537L90.5302 14.485C92.2557 12.4038 92.3101 9.10047 90.6923 6.94296L90.5302 6.73788C89.6288 5.65096 88.4249 5.08456 87.1982 5.08456Z" stroke="#FA181C" stroke-opacity="0.97"/>
<path d="M0.807465 19.3387H4.51453V33.2317H10.8815V36.9954H0.807465V19.3387Z" fill="white"/>
<path d="M4.0145 19.8387V33.7313H10.3817V36.495H1.30746V19.8387H4.0145Z" stroke="#FA181C" stroke-opacity="0.97"/>
<path d="M17.6124 37.3743C16.3697 37.3743 15.2805 37.1049 14.345 36.5661C13.4095 36.0103 12.6835 35.2525 12.1668 34.2927C11.6642 33.3159 11.4129 32.1961 11.4129 30.933C11.4129 29.6701 11.6642 28.5586 12.1668 27.5988C12.6835 26.6221 13.4095 25.8643 14.345 25.3254C15.2805 24.7696 16.3697 24.4918 17.6124 24.4918C18.8551 24.4918 19.9441 24.7696 20.8796 25.3254C21.8151 25.8643 22.5342 26.6221 23.0368 27.5988C23.5535 28.5586 23.8117 29.6701 23.8117 30.933C23.8117 32.1961 23.5535 33.3159 23.0368 34.2927C22.5342 35.2525 21.8151 36.0103 20.8796 36.5661C19.9441 37.1049 18.8551 37.3743 17.6124 37.3743ZM17.6124 33.9137C18.3524 33.9137 18.9388 33.6527 19.3716 33.1307C19.8185 32.5918 20.0418 31.8593 20.0418 30.933C20.0418 30.0069 19.8185 29.2828 19.3716 28.7608C18.9388 28.2218 18.3524 27.9525 17.6124 27.9525C16.8723 27.9525 16.2789 28.2218 15.8321 28.7608C15.3992 29.2828 15.1828 30.0069 15.1828 30.933C15.1828 31.8593 15.3992 32.5918 15.8321 33.1307C16.2789 33.6527 16.8723 33.9137 17.6124 33.9137Z" fill="white"/>
<path d="M17.6121 24.9918C18.6323 24.9918 19.5246 25.1905 20.2996 25.5778L20.6238 25.7555L20.6297 25.7584C21.374 26.1871 21.9667 26.7664 22.4109 27.5026L22.5926 27.8278L22.5965 27.8356C23.0681 28.7117 23.3113 29.7398 23.3113 30.9332C23.3113 31.9773 23.1252 32.902 22.7615 33.7164L22.5945 34.0592L22.5936 34.0612C22.1352 34.9363 21.483 35.6242 20.6297 36.1324C19.7809 36.6213 18.7805 36.8746 17.6121 36.8746C16.5897 36.8746 15.6958 36.6812 14.9197 36.3053L14.5945 36.1324C13.8471 35.6872 13.2484 35.1035 12.7937 34.3766L12.6072 34.0553C12.149 33.1612 11.9129 32.1248 11.9129 30.9332C11.9129 29.7385 12.1504 28.7095 12.6092 27.8326C13.0237 27.0491 13.5805 26.4243 14.284 25.9518L14.5945 25.7584L14.6004 25.7555C15.4481 25.2519 16.4464 24.9919 17.6121 24.9918ZM17.6121 27.4528C16.7881 27.4528 16.0882 27.7414 15.5525 28.3219L15.4471 28.442C14.9167 29.0817 14.6824 29.9333 14.6824 30.9332C14.6825 31.9346 14.917 32.7902 15.4422 33.444L15.452 33.4557C16.0016 34.0979 16.7388 34.4136 17.6121 34.4137C18.4309 34.4137 19.1267 34.1356 19.6531 33.567L19.7566 33.4498C20.2989 32.7958 20.5418 31.9379 20.5418 30.9332C20.5418 29.9296 20.2996 29.0751 19.7518 28.4352H19.7508C19.2165 27.7773 18.4856 27.4528 17.6121 27.4528Z" stroke="#FA181C" stroke-opacity="0.97"/>
<path d="M30.7357 42.8052C30.0655 42.8052 29.3882 42.7294 28.7041 42.5779C28.0339 42.4263 27.4544 42.2243 26.9657 41.9716V38.8899C28.0687 39.4624 29.3254 39.7487 30.7357 39.7487C31.7549 39.7487 32.488 39.4961 32.9347 38.9909C33.3956 38.4858 33.6259 37.7448 33.6259 36.7681V36.0356C33.221 36.4566 32.7183 36.7849 32.1179 37.0207C31.5315 37.2565 30.9032 37.3743 30.233 37.3743C29.1718 37.3743 28.2363 37.1049 27.4264 36.5661C26.6167 36.0271 25.9813 35.2693 25.5206 34.2927C25.0737 33.3159 24.8504 32.1961 24.8504 30.933C24.8504 29.6532 25.0737 28.525 25.5206 27.5483C25.9674 26.5715 26.5957 25.8221 27.4056 25.3001C28.2153 24.7613 29.1439 24.4918 30.1911 24.4918C31.6293 24.4918 32.816 25.0223 33.7515 26.0832V24.8706H37.3121V36.1619C37.3121 38.2668 36.7745 39.9004 35.6994 41.0623C34.6383 42.2243 32.9836 42.8052 30.7357 42.8052ZM31.1545 33.939C31.727 33.939 32.2366 33.7622 32.6834 33.4085C33.1303 33.0549 33.4444 32.5834 33.6259 31.994V29.8722C33.4304 29.2828 33.1093 28.8196 32.6625 28.4828C32.2156 28.1293 31.713 27.9525 31.1545 27.9525C30.4006 27.9525 29.7931 28.2218 29.3324 28.7608C28.8716 29.2828 28.6412 29.9984 28.6412 30.9078C28.6412 31.834 28.8716 32.5749 29.3324 33.1307C29.7931 33.6695 30.4006 33.939 31.1545 33.939Z" fill="white"/>
<path d="M30.1912 24.9918C31.4886 24.9919 32.538 25.4625 33.3768 26.4137L34.2518 27.4059V25.3707H36.8123V36.1617C36.8123 38.057 36.3591 39.4912 35.5076 40.5221L35.3328 40.7223L35.3299 40.7252C34.3983 41.7452 32.9048 42.3052 30.7361 42.3053C30.104 42.3053 29.4626 42.2335 28.8123 42.0895H28.8113C28.2982 41.9732 27.8514 41.8254 27.4656 41.6539V39.6647C28.4608 40.0557 29.5531 40.2487 30.7361 40.2487C31.8219 40.2486 32.722 39.9801 33.3035 39.3268L33.3045 39.3278C33.8792 38.6977 34.1258 37.8163 34.1258 36.7682V34.7946L33.2654 35.6891C32.9594 36.0073 32.5845 36.2696 32.1336 36.4723L31.9354 36.5553L31.9315 36.5573C31.408 36.7677 30.8433 36.8746 30.2332 36.8746C29.2613 36.8746 28.4233 36.6293 27.7029 36.15H27.7039C26.9795 35.6678 26.4014 34.9856 25.9754 34.0846C25.5632 33.1837 25.3504 32.137 25.3504 30.9332C25.3504 29.8644 25.5133 28.9227 25.8299 28.1012L25.9754 27.7565C26.3357 26.9688 26.8157 26.3558 27.4129 25.9039L27.6766 25.7203L27.6824 25.7164C28.4038 25.2364 29.2347 24.9918 30.1912 24.9918ZM34.1258 29.7916L34.1004 29.7145C33.8766 29.0399 33.5002 28.4881 32.9637 28.0836H32.9627C32.4318 27.6668 31.8237 27.4528 31.1541 27.4528C30.3206 27.4528 29.6093 27.7385 29.0604 28.316L28.952 28.4362C28.3923 29.0738 28.1414 29.9179 28.1414 30.9078C28.1414 31.8538 28.3632 32.6725 28.8475 33.3219L28.9471 33.4498L28.952 33.4557C29.5142 34.1133 30.2647 34.439 31.1541 34.4391C31.7531 34.4391 32.3023 34.2748 32.7889 33.9498L32.994 33.8004C33.5266 33.3788 33.8946 32.8188 34.1033 32.1412L34.1258 32.069V29.7916Z" stroke="#FA181C" stroke-opacity="0.97"/>
<path d="M44.4468 37.3743C43.2041 37.3743 42.115 37.1049 41.1795 36.5661C40.244 36.0103 39.5179 35.2525 39.0013 34.2927C38.4986 33.3159 38.2473 32.1961 38.2473 30.933C38.2473 29.6701 38.4986 28.5586 39.0013 27.5988C39.5179 26.6221 40.244 25.8643 41.1795 25.3254C42.115 24.7696 43.2041 24.4918 44.4468 24.4918C45.6894 24.4918 46.7785 24.7696 47.714 25.3254C48.6495 25.8643 49.3686 26.6221 49.8713 27.5988C50.3878 28.5586 50.6462 29.6701 50.6462 30.933C50.6462 32.1961 50.3878 33.3159 49.8713 34.2927C49.3686 35.2525 48.6495 36.0103 47.714 36.5661C46.7785 37.1049 45.6894 37.3743 44.4468 37.3743ZM44.4468 33.9137C45.1867 33.9137 45.7732 33.6527 46.2061 33.1307C46.6529 32.5918 46.8763 31.8593 46.8763 30.933C46.8763 30.0069 46.6529 29.2828 46.2061 28.7608C45.7732 28.2218 45.1867 27.9525 44.4468 27.9525C43.7068 27.9525 43.1133 28.2218 42.6665 28.7608C42.2336 29.2828 42.0172 30.0069 42.0172 30.933C42.0172 31.8593 42.2336 32.5918 42.6665 33.1307C43.1133 33.6527 43.7068 33.9137 44.4468 33.9137Z" fill="white"/>
<path d="M44.4465 24.9918C45.4667 24.9918 46.359 25.1905 47.134 25.5778L47.4582 25.7555L47.4641 25.7584C48.2084 26.1871 48.801 26.7664 49.2453 27.5026L49.427 27.8278L49.4309 27.8356C49.9024 28.7118 50.1467 29.7398 50.1467 30.9332C50.1467 31.9773 49.9596 32.902 49.5959 33.7164L49.4289 34.0592L49.4279 34.0612C48.9694 34.9363 48.3173 35.6242 47.4641 36.1324C46.6153 36.6213 45.6149 36.8746 44.4465 36.8746C43.4241 36.8746 42.5302 36.6812 41.7541 36.3053L41.4289 36.1324C40.6815 35.6871 40.0827 35.1035 39.6281 34.3766L39.4416 34.0553C38.9833 33.1612 38.7473 32.1248 38.7473 30.9332C38.7473 29.7385 38.9847 28.7095 39.4436 27.8326C39.8579 27.0491 40.4149 26.4243 41.1184 25.9518L41.4289 25.7584L41.4348 25.7555C42.2825 25.2519 43.2808 24.9919 44.4465 24.9918ZM44.4465 27.4528C43.6226 27.4528 42.9226 27.7414 42.3869 28.3219L42.2814 28.442C41.7511 29.0817 41.5168 29.9333 41.5168 30.9332C41.5168 31.9346 41.7514 32.7902 42.2766 33.444L42.2863 33.4557C42.836 34.098 43.5733 34.4136 44.4465 34.4137C45.2653 34.4137 45.961 34.1356 46.4875 33.567L46.591 33.4498C47.1332 32.7958 47.3761 31.938 47.3762 30.9332C47.3762 29.9296 47.1338 29.0751 46.5861 28.4352H46.5852C46.0508 27.7774 45.32 27.4528 44.4465 27.4528Z" stroke="#FA181C" stroke-opacity="0.97"/>
<path d="M109.769 19.3387H113.477V36.9954H109.769V19.3387Z" fill="white"/>
<path d="M112.977 19.8387V36.495H110.269V19.8387H112.977Z" stroke="#FA181C" stroke-opacity="0.97"/>
<path d="M115.353 24.8706H118.914V26.0832C119.849 25.0223 121.036 24.4918 122.474 24.4918C123.521 24.4918 124.45 24.7613 125.26 25.3001C126.07 25.8221 126.698 26.5715 127.145 27.5483C127.591 28.5081 127.815 29.6281 127.815 30.9078C127.815 32.1708 127.591 33.2991 127.145 34.2927C126.698 35.2693 126.07 36.0271 125.26 36.5661C124.464 37.1049 123.536 37.3743 122.474 37.3743C121.804 37.3743 121.162 37.248 120.548 36.9954C119.948 36.7597 119.444 36.4312 119.04 36.0103V42.5273H115.353V24.8706ZM121.511 33.9137C122.265 33.9137 122.873 33.6444 123.333 33.1054C123.794 32.5666 124.025 31.834 124.025 30.9078C124.025 29.9816 123.794 29.2576 123.333 28.7354C122.873 28.1966 122.265 27.9271 121.511 27.9271C120.953 27.9271 120.45 28.104 120.003 28.4576C119.556 28.7944 119.236 29.2576 119.04 29.8469V31.994C119.236 32.5834 119.556 33.0549 120.003 33.4085C120.45 33.7454 120.953 33.9137 121.511 33.9137Z" fill="white"/>
<path d="M122.474 24.9918C123.311 24.9919 124.052 25.1793 124.707 25.5475L124.982 25.7164L124.989 25.7203C125.62 26.1266 126.134 26.6913 126.528 27.4293L126.69 27.7565L126.691 27.7594C127.102 28.6409 127.315 29.6862 127.315 30.9078C127.315 31.9606 127.152 32.9011 126.834 33.736L126.688 34.0875C126.328 34.8749 125.847 35.4944 125.247 35.9596L124.983 36.15L124.979 36.152C124.276 36.6288 123.447 36.8746 122.474 36.8746C121.945 36.8746 121.436 36.7871 120.947 36.6129L120.738 36.5328L120.73 36.5299L120.533 36.4469C120.082 36.2442 119.706 35.982 119.4 35.6637L118.54 34.7682V42.027H115.853V25.3707H118.414V27.4069L119.29 26.4137C120.128 25.4628 121.177 24.9918 122.474 24.9918ZM121.512 27.4274C120.923 27.4274 120.38 27.5926 119.896 27.9166L119.692 28.0651C119.16 28.4693 118.788 29.0191 118.565 29.6891L118.54 29.7662V32.0748L118.565 32.152C118.761 32.7403 119.071 33.2395 119.501 33.6364L119.692 33.8004L119.702 33.8082C120.235 34.2102 120.845 34.4137 121.512 34.4137C122.345 34.4136 123.057 34.1275 123.605 33.5494L123.713 33.4303C124.272 32.7764 124.524 31.9162 124.524 30.9078C124.524 29.9631 124.303 29.1519 123.809 28.527L123.708 28.4049C123.147 27.7509 122.398 27.4275 121.512 27.4274Z" stroke="#FA181C" stroke-opacity="0.97"/>
<path d="M133.31 37.3743C132.501 37.3743 131.657 37.2733 130.777 37.0712C129.897 36.886 129.198 36.6165 128.682 36.2629V33.0044C129.254 33.4085 129.938 33.7454 130.735 34.0148C131.544 34.2673 132.284 34.3937 132.955 34.3937C133.443 34.3937 133.799 34.3515 134.022 34.2673C134.246 34.1832 134.358 34.0148 134.358 33.7622C134.358 33.56 134.282 33.4001 134.128 33.2822C133.988 33.1476 133.722 33.0127 133.331 32.8781C132.955 32.7266 132.515 32.5666 132.012 32.3981C131.16 32.095 130.491 31.7835 130.002 31.4635C129.513 31.1435 129.15 30.7394 128.912 30.251C128.675 29.7627 128.557 29.1481 128.557 28.4071C128.557 27.0935 128.982 26.1169 129.834 25.4769C130.699 24.8201 131.879 24.4918 133.374 24.4918C134.1 24.4918 134.861 24.5845 135.656 24.7696C136.467 24.955 137.073 25.1991 137.479 25.5023V28.7103C137.06 28.3735 136.501 28.0955 135.803 27.8767C135.119 27.6577 134.476 27.5483 133.876 27.5483C133.402 27.5483 133.031 27.6072 132.766 27.725C132.501 27.8261 132.369 28.0113 132.369 28.2808C132.369 28.5334 132.501 28.7271 132.766 28.8618C133.031 28.9964 133.506 29.1649 134.19 29.3669C134.637 29.5017 134.826 29.5606 134.755 29.5437C135.649 29.8301 136.34 30.15 136.829 30.5037C137.318 30.8573 137.659 31.2783 137.855 31.7666C138.065 32.2381 138.17 32.8444 138.17 33.5854C138.17 34.7473 137.751 35.6734 136.913 36.3639C136.089 37.0375 134.888 37.3743 133.31 37.3743Z" fill="white"/>
<path d="M134.583 30.0094C134.58 30.0084 134.576 30.0079 134.571 30.0065C134.558 30.0021 134.54 29.9969 134.518 29.9899C134.426 29.9614 134.271 29.9132 134.049 29.8463L133.567 29.6989C133.12 29.5559 132.773 29.4254 132.54 29.3073C132.352 29.2119 132.18 29.0801 132.056 28.8981C131.928 28.7116 131.868 28.4999 131.868 28.2809C131.868 28.0614 131.924 27.8412 132.061 27.649C132.198 27.4589 132.386 27.3344 132.588 27.2574L132.701 27.2135C133.034 27.0954 133.434 27.0485 133.876 27.0485C134.537 27.0485 135.231 27.1683 135.955 27.4H135.954C136.326 27.5167 136.669 27.6514 136.978 27.8063V25.7711C136.65 25.5792 136.181 25.403 135.545 25.2574L135.543 25.2565L135.259 25.194C134.6 25.0583 133.972 24.9918 133.374 24.9918C131.949 24.9918 130.887 25.3056 130.136 25.8756L130.135 25.8766L130.008 25.9781C129.392 26.5028 129.057 27.2845 129.057 28.4069C129.057 29.0983 129.168 29.6327 129.362 30.0328C129.558 30.434 129.857 30.7716 130.275 31.0455C130.719 31.3354 131.348 31.6312 132.18 31.9274C132.675 32.0934 133.113 32.2527 133.493 32.4049H133.494C133.869 32.534 134.207 32.6877 134.433 32.8854L134.532 32.9713C134.75 33.1814 134.857 33.4574 134.857 33.7623C134.857 33.962 134.813 34.1695 134.69 34.3541C134.566 34.5409 134.39 34.6619 134.198 34.734L134.199 34.735C133.887 34.8529 133.453 34.8932 132.955 34.8932C132.222 34.8932 131.431 34.7556 130.586 34.4918L130.574 34.4889L130.267 34.3795C129.881 34.2357 129.52 34.073 129.183 33.8942V35.985C129.544 36.1922 130.005 36.3715 130.574 36.5123L130.88 36.5817L130.889 36.5836L131.205 36.652C131.937 36.8007 132.639 36.8746 133.31 36.8746C134.825 36.8746 135.895 36.5501 136.596 35.9781L136.726 35.8658C137.353 35.2919 137.67 34.546 137.67 33.5856C137.67 32.8862 137.57 32.356 137.398 31.9703L137.394 31.9615L137.392 31.9528C137.236 31.564 136.96 31.2151 136.536 30.9088L136.365 30.7926C135.944 30.5233 135.362 30.2634 134.602 30.0201L134.737 29.5377C134.676 29.5178 134.528 29.4696 134.292 29.3981C134.237 29.5719 134.295 29.7215 134.334 29.7916C134.375 29.8653 134.425 29.91 134.443 29.9254C134.467 29.9456 134.488 29.9591 134.499 29.9664C134.535 29.9896 134.567 30.0034 134.569 30.0045C134.575 30.0069 134.58 30.0081 134.583 30.0094ZM134.583 30.0094C134.585 30.01 134.586 30.0109 134.588 30.0114C134.59 30.0121 134.591 30.0131 134.592 30.0133C134.591 30.013 134.589 30.0122 134.587 30.0114C134.586 30.011 134.585 30.0101 134.583 30.0094Z" stroke="#FA181C" stroke-opacity="0.97"/>
<path d="M143.673 37.3745C142.291 37.3745 141.251 36.9113 140.553 35.9852C139.869 35.0589 139.527 33.8381 139.527 32.3225V24.8708H143.213V31.8172C143.213 33.215 143.736 33.9138 144.784 33.9138C145.259 33.9138 145.692 33.7791 146.082 33.5097C146.473 33.2402 146.794 32.8445 147.045 32.3225V24.8708H150.731V36.9955H147.172V35.682C146.739 36.2377 146.215 36.6587 145.6 36.945C144.987 37.2313 144.344 37.3745 143.673 37.3745Z" fill="white"/>
<path d="M142.713 25.3708V31.817C142.713 32.5637 142.85 33.215 143.205 33.6891C143.581 34.1904 144.138 34.4137 144.784 34.4137C145.288 34.4137 145.759 34.2876 146.186 34.0368L146.366 33.9215C146.842 33.5931 147.215 33.1222 147.495 32.5387L147.545 32.4362V25.3708H150.232V36.4958H147.671V34.2262L146.778 35.3747C146.44 35.8082 146.044 36.1461 145.588 36.3922L145.389 36.4919C144.841 36.7475 144.27 36.8746 143.673 36.8747C142.494 36.8747 141.649 36.5105 141.066 35.8258L140.953 35.6842C140.351 34.8679 140.027 33.7626 140.027 32.3229V25.3708H142.713Z" stroke="#FA181C" stroke-opacity="0.97"/>
<path d="M152.619 24.8706H156.033V26.1842C156.452 25.6454 156.934 25.2328 157.478 24.9465C158.022 24.6433 158.602 24.4918 159.216 24.4918C159.971 24.4918 160.571 24.6265 161.018 24.896C161.479 25.1654 161.848 25.5696 162.128 26.1084C162.546 25.6033 163.057 25.2075 163.657 24.9213C164.258 24.635 164.865 24.4918 165.479 24.4918C166.805 24.4918 167.748 24.9045 168.306 25.7296C168.865 26.5379 169.144 27.7082 169.144 29.2406V36.9954H165.625V29.8722C165.625 29.1986 165.521 28.7103 165.311 28.4071C165.102 28.104 164.753 27.9525 164.265 27.9525C163.636 27.9525 163.126 28.2218 162.735 28.7608C162.749 29.0469 162.756 29.4849 162.756 30.0742V36.9954H159.238V29.6954C159.238 29.0723 159.147 28.626 158.965 28.3566C158.784 28.0871 158.462 27.9525 158.003 27.9525C157.289 27.9525 156.676 28.4323 156.159 29.3922V36.9954H152.619V24.8706Z" fill="white"/>
<path d="M165.478 24.9918C166.623 24.9918 167.36 25.3207 167.806 25.8922L167.892 26.0094L167.895 26.0133C168.372 26.7033 168.644 27.7572 168.644 29.2408V36.4957H166.125V29.8727C166.125 29.2583 166.045 28.7093 165.825 28.2926L165.721 28.1227C165.39 27.6422 164.857 27.4528 164.264 27.4528C163.465 27.4528 162.808 27.8075 162.33 28.4674L162.227 28.61L162.236 28.7858C162.25 29.059 162.257 29.4866 162.257 30.0739V36.4957H159.738V29.6949C159.738 29.1309 159.67 28.6209 159.472 28.235L159.38 28.0768C159.07 27.6176 158.554 27.4528 158.003 27.4528C157.019 27.4528 156.272 28.1272 155.719 29.1549L155.659 29.2662V36.4957H153.119V25.3707H155.533V27.6422L156.428 26.4908C156.761 26.0635 157.13 25.7314 157.535 25.4879L157.711 25.3893L157.721 25.3834C158.192 25.1211 158.688 24.9918 159.217 24.9918C159.83 24.9918 160.29 25.0885 160.624 25.2506L160.76 25.3239L160.765 25.3278C161.134 25.5431 161.441 25.8717 161.683 26.3385L162.031 27.0084L162.512 26.4274C162.838 26.035 163.225 25.7177 163.676 25.4733L163.872 25.3727C164.411 25.1157 164.945 24.9919 165.478 24.9918Z" stroke="#FA181C" stroke-opacity="0.97"/>
</svg>
